M48
;Layer_Color=9474304
;FILE_FORMAT=4:4
METRIC,TZ
;TYPE=PLATED
T01F00S00C0.8000
T02F00S00C0.9000
T03F00S00C1.0000
T04F00S00C1.0200
T05F00S00C1.1000
T06F00S00C1.5000
T07F00S00C3.2000
%
T01
X2088356Y1174458
X2113356
X2038656Y1229458
X2013256
X1987856
X1962456
T02
X2195856Y1159458
Y1209458
T03
X2663356Y1271958
X2708356
Y1336958
Y1361958
X2663356
Y1336958
Y1426958
Y1451958
X2708356
Y1426958
Y1516958
X2663356
T04
X2000456Y1674458
X2025856
X2051256
X2100456
X2125856
X2151256
X2200456
X2225856
X2251256
X2300456
X2325856
X2351256
X2400456
X2425856
X2451256
X2500456Y1674458
X2525856
X2551256
X2600456Y1674458
X2625856
X2651256
T05
X2446956Y1318258
X2472356
X2497756
X2523156
X2548556
X2573956
X2599356
X2624756
Y1470658
X2599356
X2573956
X2548556
X2523156
X2497756
X2472356
X2446956
X2356156Y1521458
X2330756
X2305356
X2279956
X2254556
X2229156
X2203756
X2178356
X2152956
X2127556
X2102156
X2076756
X2051356
X2025956
X2000556
Y1267458
X2025956
X2051356
X2076756
X2102156
X2127556
X2152956
X2178356
X2203756
X2229156
X2254556
X2279956
X2305356
X2330756
X2356156
T06
X2350856Y1174458
X2400856
X2470856Y1174458
X2520856
X2590856Y1174458
X2640856
T07
X1935856Y1164458
X2715856
X1935856Y1674458
X2715856
M30
