G04*
G04 #@! TF.GenerationSoftware,Altium Limited,Altium Designer,24.4.1 (13)*
G04*
G04 Layer_Physical_Order=2*
G04 Layer_Color=16711680*
%FSLAX44Y44*%
%MOMM*%
G71*
G04*
G04 #@! TF.SameCoordinates,63E37870-44FF-48FD-8248-C193DD5CA91D*
G04*
G04*
G04 #@! TF.FilePolarity,Positive*
G04*
G01*
G75*
%ADD10C,0.2000*%
%ADD14C,2.1000*%
%ADD17C,1.6000*%
%ADD25C,0.6000*%
%ADD26C,2.0000*%
%ADD27R,1.6000X1.6000*%
%ADD28C,1.5000*%
G04:AMPARAMS|DCode=29|XSize=1.5mm|YSize=1.5mm|CornerRadius=0.375mm|HoleSize=0mm|Usage=FLASHONLY|Rotation=180.000|XOffset=0mm|YOffset=0mm|HoleType=Round|Shape=RoundedRectangle|*
%AMROUNDEDRECTD29*
21,1,1.5000,0.7500,0,0,180.0*
21,1,0.7500,1.5000,0,0,180.0*
1,1,0.7500,-0.3750,0.3750*
1,1,0.7500,0.3750,0.3750*
1,1,0.7500,0.3750,-0.3750*
1,1,0.7500,-0.3750,-0.3750*
%
%ADD29ROUNDEDRECTD29*%
G04:AMPARAMS|DCode=30|XSize=1.5mm|YSize=1.5mm|CornerRadius=0.375mm|HoleSize=0mm|Usage=FLASHONLY|Rotation=90.000|XOffset=0mm|YOffset=0mm|HoleType=Round|Shape=RoundedRectangle|*
%AMROUNDEDRECTD30*
21,1,1.5000,0.7500,0,0,90.0*
21,1,0.7500,1.5000,0,0,90.0*
1,1,0.7500,0.3750,0.3750*
1,1,0.7500,0.3750,-0.3750*
1,1,0.7500,-0.3750,-0.3750*
1,1,0.7500,-0.3750,0.3750*
%
%ADD30ROUNDEDRECTD30*%
%ADD31C,2.5000*%
G04:AMPARAMS|DCode=32|XSize=2.5mm|YSize=2.5mm|CornerRadius=0.625mm|HoleSize=0mm|Usage=FLASHONLY|Rotation=0.000|XOffset=0mm|YOffset=0mm|HoleType=Round|Shape=RoundedRectangle|*
%AMROUNDEDRECTD32*
21,1,2.5000,1.2500,0,0,0.0*
21,1,1.2500,2.5000,0,0,0.0*
1,1,1.2500,0.6250,-0.6250*
1,1,1.2500,-0.6250,-0.6250*
1,1,1.2500,-0.6250,0.6250*
1,1,1.2500,0.6250,0.6250*
%
%ADD32ROUNDEDRECTD32*%
%ADD33C,1.9000*%
%ADD34C,5.2000*%
%ADD35R,1.3000X1.5000*%
%ADD36R,1.7780X3.2000*%
%ADD37R,3.0000X1.6000*%
%ADD38R,6.2000X5.8000*%
%ADD39R,1.5000X1.3000*%
%ADD40C,0.7620*%
%ADD41C,1.7000*%
G36*
X2718210Y1710380D02*
X2722879Y1709765D01*
X2727428Y1708546D01*
X2731778Y1706745D01*
X2735856Y1704390D01*
X2739592Y1701523D01*
X2742921Y1698194D01*
X2745788Y1694458D01*
X2748142Y1690380D01*
X2749944Y1686030D01*
X2751163Y1681481D01*
X2751778Y1676813D01*
X2751778Y1674458D01*
X2751778Y1554214D01*
X2746234Y1551917D01*
X2718525Y1579627D01*
X2716645Y1581070D01*
X2714456Y1581976D01*
X2712106Y1582286D01*
X2561861D01*
X2559565Y1587829D01*
X2587366Y1615630D01*
X2596960D01*
X2597126Y1615593D01*
X2597256Y1615589D01*
Y1612208D01*
X2624256D01*
Y1612208D01*
X2627256Y1612208D01*
X2627256Y1612208D01*
X2654256D01*
Y1631708D01*
Y1641208D01*
X2640757D01*
Y1647208D01*
X2654256D01*
Y1655329D01*
X2654256Y1656708D01*
X2658785Y1660259D01*
X2658835Y1660279D01*
X2661455Y1662030D01*
X2663684Y1664259D01*
X2665435Y1666879D01*
X2666641Y1669791D01*
X2666973Y1671458D01*
X2651256D01*
Y1674458D01*
X2648256D01*
Y1690175D01*
X2646589Y1689843D01*
X2643677Y1688637D01*
X2641057Y1686886D01*
X2638556Y1684876D01*
X2636056Y1686886D01*
X2633435Y1688637D01*
X2630523Y1689843D01*
X2627432Y1690458D01*
X2624280D01*
X2621189Y1689843D01*
X2618277Y1688637D01*
X2615657Y1686886D01*
X2613156Y1684876D01*
X2610656Y1686886D01*
X2608035Y1688637D01*
X2605123Y1689843D01*
X2602032Y1690458D01*
X2601364D01*
X2600922Y1690567D01*
X2600000Y1690610D01*
X2599325Y1690682D01*
X2598726Y1690785D01*
X2598202Y1690913D01*
X2597747Y1691061D01*
X2597354Y1691225D01*
X2597012Y1691402D01*
X2596711Y1691592D01*
X2596438Y1691800D01*
X2595986Y1692214D01*
X2595864Y1692288D01*
X2588275Y1699877D01*
X2586395Y1701320D01*
X2584206Y1702226D01*
X2581856Y1702536D01*
X2303612D01*
X2302453Y1703016D01*
X2299893Y1703353D01*
X2297332Y1703016D01*
X2296173Y1702536D01*
X2204552D01*
X2203393Y1703016D01*
X2200832Y1703353D01*
X2198271Y1703016D01*
X2197113Y1702536D01*
X1989856D01*
X1987507Y1702226D01*
X1985317Y1701320D01*
X1983437Y1699877D01*
X1983437Y1699877D01*
X1977122Y1693562D01*
X1975679Y1691682D01*
X1974772Y1689492D01*
X1974463Y1687143D01*
Y1530903D01*
X1974432Y1530780D01*
X1974421Y1530578D01*
X1974219Y1530567D01*
X1974095Y1530536D01*
X1960856D01*
X1958507Y1530226D01*
X1956317Y1529320D01*
X1954437Y1527877D01*
X1938947Y1512387D01*
X1937505Y1510507D01*
X1936598Y1508318D01*
X1936288Y1505968D01*
Y1221437D01*
X1936598Y1219088D01*
X1937505Y1216898D01*
X1938947Y1215018D01*
X1947926Y1206039D01*
X1947926Y1206039D01*
X1949806Y1204597D01*
X1951996Y1203690D01*
X1954345Y1203381D01*
X1980956D01*
Y1177458D01*
X2017956D01*
Y1174458D01*
X2020956D01*
Y1139458D01*
X2054956D01*
Y1140298D01*
X2058494Y1142574D01*
X2060956Y1143482D01*
X2062507Y1142840D01*
X2064856Y1142531D01*
X2067559D01*
X2067726Y1142493D01*
X2067856Y1142489D01*
Y1137608D01*
X2109856D01*
Y1159636D01*
X2110356Y1160020D01*
Y1174458D01*
X2116356D01*
Y1170021D01*
X2120722Y1173045D01*
X2120639Y1172443D01*
X2120623Y1171847D01*
X2120673Y1171256D01*
X2120789Y1170671D01*
X2120972Y1170091D01*
X2121222Y1169518D01*
X2121538Y1168950D01*
X2121920Y1168387D01*
X2122369Y1167830D01*
X2122884Y1167279D01*
X2117795Y1163882D01*
X2117259Y1164393D01*
X2116356Y1165130D01*
Y1161286D01*
X2118567Y1161878D01*
X2121645Y1163655D01*
X2124159Y1166169D01*
X2125604Y1168672D01*
X2126755Y1169618D01*
X2132427Y1171365D01*
X2134921Y1170331D01*
X2138706Y1169833D01*
X2138706Y1169833D01*
X2179330D01*
X2181698Y1166733D01*
X2183052Y1163833D01*
X2182684Y1162458D01*
X2184482D01*
Y1162458D01*
X2185229Y1162481D01*
X2185943Y1162548D01*
X2186625Y1162661D01*
X2187275Y1162818D01*
X2187893Y1163021D01*
X2188479Y1163268D01*
X2189032Y1163561D01*
X2189554Y1163898D01*
X2190043Y1164281D01*
X2190500Y1164708D01*
Y1162458D01*
X2195856D01*
Y1159458D01*
X2198856D01*
Y1146286D01*
X2201067Y1146878D01*
X2204145Y1148655D01*
X2206659Y1151169D01*
X2208436Y1154247D01*
X2209356Y1157681D01*
X2210279Y1158587D01*
X2215356Y1161042D01*
X2217071Y1160331D01*
X2220670Y1159857D01*
X2220743Y1159842D01*
X2220798Y1159841D01*
X2220856Y1159833D01*
X2221208D01*
X2223109Y1159798D01*
X2225045Y1159678D01*
X2226638Y1159491D01*
X2227856Y1159261D01*
X2227946Y1159235D01*
Y1152458D01*
X2257726D01*
Y1159742D01*
X2259274Y1159833D01*
X2260856D01*
X2264641Y1160331D01*
X2268169Y1161792D01*
X2271198Y1164117D01*
X2288443Y1181362D01*
X2293986Y1179066D01*
Y1152458D01*
X2316874D01*
X2317008Y1152414D01*
X2317375Y1152443D01*
X2317736Y1152371D01*
X2318173Y1152458D01*
X2323766D01*
Y1157627D01*
X2323810Y1157761D01*
X2323856Y1158148D01*
X2323868Y1158158D01*
X2324481Y1158487D01*
X2325600Y1158889D01*
X2327215Y1159271D01*
X2329296Y1159576D01*
X2329550Y1159596D01*
X2329683Y1159590D01*
X2333634Y1159162D01*
X2335051Y1158909D01*
X2336190Y1158631D01*
X2336953Y1158377D01*
X2337296Y1158218D01*
X2337740Y1157922D01*
X2338062Y1157789D01*
X2338428Y1157508D01*
X2341408Y1156273D01*
X2344606Y1155853D01*
X2357106D01*
X2360304Y1156273D01*
X2363284Y1157508D01*
X2365843Y1159471D01*
X2367807Y1162030D01*
X2369041Y1165010D01*
X2369462Y1168208D01*
Y1180708D01*
X2369041Y1183906D01*
X2367807Y1186886D01*
X2366313Y1188833D01*
X2366856Y1191370D01*
X2368677Y1194833D01*
X2386856D01*
X2387347Y1194898D01*
X2389518Y1189132D01*
X2389063Y1188828D01*
X2386486Y1186251D01*
X2384462Y1183221D01*
X2383067Y1179854D01*
X2382590Y1177458D01*
X2397856D01*
Y1195538D01*
X2396483Y1198568D01*
X2397198Y1199117D01*
X2457298Y1259217D01*
X2457298Y1259217D01*
X2459622Y1262245D01*
X2460478Y1264312D01*
X2461083Y1265773D01*
X2461581Y1269558D01*
Y1298573D01*
X2461747Y1298857D01*
X2467543Y1302392D01*
X2470731Y1301758D01*
X2473981D01*
X2477169Y1302392D01*
X2480172Y1303636D01*
X2482874Y1305442D01*
X2485056Y1307624D01*
X2487238Y1305442D01*
X2489940Y1303636D01*
X2492943Y1302392D01*
X2494756Y1302032D01*
Y1318258D01*
X2500756D01*
Y1302032D01*
X2502569Y1302392D01*
X2508365Y1298857D01*
X2508531Y1298573D01*
Y1273516D01*
X2460515Y1225500D01*
X2458190Y1222471D01*
X2456729Y1218943D01*
X2456231Y1215158D01*
Y1202779D01*
X2456210Y1200661D01*
X2455988Y1195631D01*
X2455560Y1191680D01*
X2455307Y1190263D01*
X2455029Y1189124D01*
X2454775Y1188361D01*
X2454616Y1188019D01*
X2454320Y1187574D01*
X2454187Y1187253D01*
X2453906Y1186886D01*
X2452671Y1183906D01*
X2452250Y1180708D01*
Y1168208D01*
X2452671Y1165010D01*
X2453906Y1162030D01*
X2455869Y1159471D01*
X2458428Y1157508D01*
X2461408Y1156273D01*
X2464606Y1155852D01*
X2477106D01*
X2480304Y1156273D01*
X2483284Y1157508D01*
X2485843Y1159471D01*
X2487807Y1162030D01*
X2489041Y1165010D01*
X2489462Y1168208D01*
Y1180708D01*
X2489041Y1183906D01*
X2487807Y1186886D01*
X2487525Y1187253D01*
X2487392Y1187574D01*
X2487096Y1188019D01*
X2486938Y1188361D01*
X2486683Y1189124D01*
X2486405Y1190263D01*
X2486171Y1191575D01*
X2485501Y1200748D01*
X2485481Y1202779D01*
Y1209100D01*
X2523828Y1247447D01*
X2530339Y1245472D01*
X2530645Y1243931D01*
X2510515Y1223801D01*
X2508190Y1220772D01*
X2506729Y1217244D01*
X2506231Y1213459D01*
Y1189852D01*
X2506217Y1187396D01*
X2506164Y1185769D01*
X2504462Y1183221D01*
X2503067Y1179854D01*
X2502356Y1176280D01*
Y1172636D01*
X2503067Y1169062D01*
X2504462Y1165695D01*
X2506486Y1162665D01*
X2509063Y1160088D01*
X2512093Y1158064D01*
X2515460Y1156669D01*
X2519034Y1155958D01*
X2522678D01*
X2526252Y1156669D01*
X2529619Y1158064D01*
X2532649Y1160088D01*
X2535226Y1162665D01*
X2537251Y1165695D01*
X2538645Y1169062D01*
X2539356Y1172636D01*
Y1176280D01*
X2538645Y1179854D01*
X2537251Y1183221D01*
X2535655Y1185609D01*
X2535481Y1190988D01*
Y1207401D01*
X2558025Y1229945D01*
X2559751Y1230739D01*
X2565963Y1230169D01*
X2576231Y1219900D01*
Y1202779D01*
X2576210Y1200661D01*
X2575988Y1195631D01*
X2575560Y1191680D01*
X2575307Y1190263D01*
X2575029Y1189124D01*
X2574775Y1188361D01*
X2574616Y1188019D01*
X2574320Y1187574D01*
X2574187Y1187253D01*
X2573906Y1186886D01*
X2572672Y1183906D01*
X2572250Y1180708D01*
Y1168208D01*
X2572672Y1165010D01*
X2573906Y1162030D01*
X2575869Y1159471D01*
X2578428Y1157508D01*
X2581408Y1156273D01*
X2584606Y1155853D01*
X2597106D01*
X2600304Y1156273D01*
X2603284Y1157508D01*
X2605843Y1159471D01*
X2607806Y1162030D01*
X2609041Y1165010D01*
X2609462Y1168208D01*
Y1180708D01*
X2609041Y1183906D01*
X2607806Y1186886D01*
X2607525Y1187253D01*
X2607393Y1187574D01*
X2607096Y1188019D01*
X2606938Y1188361D01*
X2606683Y1189124D01*
X2606405Y1190263D01*
X2606171Y1191575D01*
X2605501Y1200748D01*
X2605481Y1202779D01*
Y1225958D01*
X2604983Y1229743D01*
X2603522Y1233271D01*
X2601198Y1236300D01*
X2601198Y1236300D01*
X2593068Y1244429D01*
X2593093Y1244553D01*
X2599603Y1246528D01*
X2626231Y1219900D01*
Y1189852D01*
X2626217Y1187396D01*
X2626164Y1185769D01*
X2624462Y1183221D01*
X2623067Y1179854D01*
X2622356Y1176280D01*
Y1172636D01*
X2623067Y1169062D01*
X2624462Y1165695D01*
X2626486Y1162665D01*
X2629063Y1160088D01*
X2632093Y1158064D01*
X2635460Y1156669D01*
X2639034Y1155958D01*
X2642678D01*
X2646252Y1156669D01*
X2649619Y1158064D01*
X2652649Y1160088D01*
X2655226Y1162665D01*
X2657251Y1165695D01*
X2658645Y1169062D01*
X2659356Y1172636D01*
Y1176280D01*
X2658645Y1179854D01*
X2657251Y1183221D01*
X2655655Y1185609D01*
X2655481Y1190988D01*
Y1225958D01*
X2654983Y1229743D01*
X2653522Y1233271D01*
X2651198Y1236300D01*
X2613981Y1273516D01*
Y1298573D01*
X2614148Y1298857D01*
X2619943Y1302392D01*
X2621756Y1302032D01*
Y1318258D01*
X2627756D01*
Y1302032D01*
X2629178Y1302314D01*
X2629695Y1302303D01*
X2635179Y1298403D01*
Y1291058D01*
X2635488Y1288709D01*
X2636395Y1286519D01*
X2637837Y1284639D01*
X2646250Y1276227D01*
X2646326Y1276102D01*
X2646731Y1275661D01*
X2646928Y1275405D01*
X2647099Y1275139D01*
X2647249Y1274851D01*
X2647383Y1274531D01*
X2647501Y1274166D01*
X2647600Y1273749D01*
X2647676Y1273270D01*
X2647724Y1272725D01*
X2647740Y1271925D01*
X2647856Y1271401D01*
Y1270432D01*
X2648452Y1267437D01*
X2649620Y1264616D01*
X2651317Y1262077D01*
X2653476Y1259919D01*
X2656014Y1258222D01*
X2658835Y1257054D01*
X2661830Y1256458D01*
X2664883D01*
X2667877Y1257054D01*
X2670698Y1258222D01*
X2673237Y1259919D01*
X2675396Y1262077D01*
X2677092Y1264616D01*
X2678260Y1267437D01*
X2678856Y1270432D01*
Y1273485D01*
X2678260Y1276479D01*
X2677092Y1279300D01*
X2675396Y1281839D01*
X2673237Y1283998D01*
X2671799Y1284958D01*
X2672393Y1289159D01*
X2673106Y1290616D01*
Y1301458D01*
X2663606D01*
Y1293533D01*
X2663518Y1293017D01*
X2662721Y1292271D01*
X2657898Y1290254D01*
X2653334Y1294818D01*
Y1318063D01*
X2658585Y1321873D01*
X2659287Y1321949D01*
X2663606Y1317958D01*
Y1307458D01*
X2673106D01*
Y1318300D01*
X2672393Y1319757D01*
X2671799Y1323958D01*
X2673237Y1324919D01*
X2675396Y1327077D01*
X2677092Y1329616D01*
X2678260Y1332437D01*
X2678856Y1335432D01*
Y1338485D01*
X2678260Y1341479D01*
X2677092Y1344300D01*
X2675396Y1346839D01*
X2673560Y1349458D01*
X2675396Y1352077D01*
X2677092Y1354616D01*
X2678260Y1357437D01*
X2678856Y1360432D01*
Y1363485D01*
X2678260Y1366479D01*
X2677092Y1369300D01*
X2675396Y1371839D01*
X2673237Y1373998D01*
X2671799Y1374958D01*
X2672393Y1379159D01*
X2673106Y1380616D01*
Y1391458D01*
X2663606D01*
Y1380958D01*
X2659287Y1376967D01*
X2658585Y1377044D01*
X2653334Y1380853D01*
Y1408063D01*
X2658585Y1411873D01*
X2659287Y1411949D01*
X2663606Y1407958D01*
Y1397458D01*
X2673106D01*
Y1401897D01*
X2670106D01*
X2670676Y1401957D01*
X2671186Y1402138D01*
X2671636Y1402440D01*
X2672026Y1402862D01*
X2672356Y1403405D01*
X2672626Y1404068D01*
X2672836Y1404852D01*
X2672986Y1405757D01*
X2673076Y1406782D01*
X2673106Y1407928D01*
X2673106D01*
Y1408300D01*
X2672393Y1409757D01*
X2671799Y1413958D01*
X2673237Y1414919D01*
X2675396Y1417077D01*
X2677092Y1419616D01*
X2678260Y1422437D01*
X2678856Y1425432D01*
Y1428485D01*
X2678260Y1431479D01*
X2677092Y1434300D01*
X2675396Y1436839D01*
X2673560Y1439458D01*
X2675396Y1442077D01*
X2677092Y1444616D01*
X2678260Y1447437D01*
X2678856Y1450432D01*
Y1453485D01*
X2678260Y1456479D01*
X2677092Y1459300D01*
X2675396Y1461839D01*
X2674776Y1462458D01*
X2676954Y1468458D01*
X2693441D01*
X2694639Y1468143D01*
X2694716Y1468112D01*
X2694904Y1467953D01*
X2695219Y1467637D01*
X2695623Y1467140D01*
X2695875Y1466734D01*
X2695976Y1466464D01*
X2696931Y1462797D01*
X2696936Y1462458D01*
X2696317Y1461839D01*
X2694620Y1459300D01*
X2693452Y1456479D01*
X2692856Y1453485D01*
Y1450432D01*
X2693452Y1447437D01*
X2694620Y1444616D01*
X2696317Y1442077D01*
X2698153Y1439458D01*
X2696317Y1436839D01*
X2694620Y1434300D01*
X2693452Y1431479D01*
X2692856Y1428485D01*
Y1427516D01*
X2692740Y1426992D01*
X2692724Y1426191D01*
X2692676Y1425646D01*
X2692600Y1425168D01*
X2692501Y1424750D01*
X2692383Y1424386D01*
X2692249Y1424065D01*
X2692099Y1423777D01*
X2691928Y1423511D01*
X2691731Y1423256D01*
X2691326Y1422814D01*
X2691250Y1422690D01*
X2689187Y1420627D01*
X2687745Y1418747D01*
X2686838Y1416558D01*
X2686529Y1414208D01*
Y1408255D01*
X2686491Y1408088D01*
X2686487Y1407958D01*
X2679106D01*
Y1407927D01*
X2679136Y1406782D01*
X2679226Y1405757D01*
X2679376Y1404852D01*
X2679586Y1404068D01*
X2679856Y1403405D01*
X2680186Y1402862D01*
X2680576Y1402440D01*
X2681026Y1402138D01*
X2681536Y1401957D01*
X2682106Y1401897D01*
X2679106D01*
Y1394458D01*
Y1380958D01*
X2698439D01*
X2699319Y1379159D01*
X2699913Y1374958D01*
X2698476Y1373998D01*
X2696317Y1371839D01*
X2694620Y1369300D01*
X2693452Y1366479D01*
X2692856Y1363485D01*
Y1360432D01*
X2693452Y1357437D01*
X2694620Y1354616D01*
X2696317Y1352077D01*
X2698153Y1349458D01*
X2696317Y1346839D01*
X2694620Y1344300D01*
X2693452Y1341479D01*
X2692856Y1338485D01*
Y1337516D01*
X2692740Y1336992D01*
X2692724Y1336191D01*
X2692676Y1335646D01*
X2692600Y1335168D01*
X2692501Y1334750D01*
X2692383Y1334386D01*
X2692249Y1334065D01*
X2692099Y1333777D01*
X2691928Y1333511D01*
X2691731Y1333256D01*
X2691326Y1332814D01*
X2691250Y1332690D01*
X2689187Y1330627D01*
X2687745Y1328747D01*
X2686838Y1326558D01*
X2686529Y1324208D01*
Y1318255D01*
X2686491Y1318088D01*
X2686487Y1317958D01*
X2679106D01*
Y1304458D01*
Y1290958D01*
X2698439D01*
X2699319Y1289159D01*
X2699913Y1284958D01*
X2698476Y1283998D01*
X2696317Y1281839D01*
X2694620Y1279300D01*
X2693452Y1276479D01*
X2692856Y1273485D01*
Y1270432D01*
X2693452Y1267437D01*
X2694620Y1264616D01*
X2696317Y1262077D01*
X2698476Y1259919D01*
X2701014Y1258222D01*
X2703835Y1257054D01*
X2706830Y1256458D01*
X2709883D01*
X2712877Y1257054D01*
X2715698Y1258222D01*
X2718237Y1259919D01*
X2718922Y1260604D01*
X2719374Y1260892D01*
X2719952Y1261447D01*
X2720371Y1261798D01*
X2720764Y1262083D01*
X2721129Y1262308D01*
X2721470Y1262483D01*
X2721791Y1262615D01*
X2722101Y1262712D01*
X2722410Y1262779D01*
X2722730Y1262821D01*
X2723329Y1262846D01*
X2723470Y1262880D01*
X2735356D01*
X2737706Y1263190D01*
X2739895Y1264097D01*
X2741775Y1265539D01*
X2746235Y1269999D01*
X2751778Y1267703D01*
X2751778Y1164458D01*
Y1162104D01*
X2751163Y1157435D01*
X2749944Y1152887D01*
X2748142Y1148536D01*
X2745788Y1144458D01*
X2742921Y1140722D01*
X2739592Y1137393D01*
X2735856Y1134526D01*
X2731778Y1132172D01*
X2727428Y1130370D01*
X2722879Y1129151D01*
X2718210Y1128536D01*
X1933502D01*
X1928833Y1129151D01*
X1924285Y1130370D01*
X1919934Y1132172D01*
X1915856Y1134526D01*
X1912120Y1137393D01*
X1908791Y1140723D01*
X1905924Y1144458D01*
X1903570Y1148536D01*
X1901768Y1152887D01*
X1900549Y1157435D01*
X1899934Y1162104D01*
Y1164458D01*
Y1674458D01*
Y1676813D01*
X1900549Y1681481D01*
X1901768Y1686030D01*
X1903570Y1690380D01*
X1905924Y1694458D01*
X1908791Y1698194D01*
X1912121Y1701523D01*
X1915856Y1704390D01*
X1919934Y1706744D01*
X1924285Y1708546D01*
X1928833Y1709765D01*
X1933502Y1710380D01*
X1935856Y1710380D01*
X2715856Y1710380D01*
X2718210Y1710380D01*
D02*
G37*
G36*
X2403496Y1689108D02*
X2403616Y1688229D01*
X2403816Y1687361D01*
X2404096Y1686505D01*
X2404456Y1685659D01*
X2404896Y1684825D01*
X2405416Y1684002D01*
X2406016Y1683190D01*
X2406696Y1682389D01*
X2407456Y1681600D01*
X2393456D01*
X2394216Y1682389D01*
X2394896Y1683190D01*
X2395496Y1684002D01*
X2396016Y1684825D01*
X2396456Y1685659D01*
X2396816Y1686505D01*
X2397096Y1687361D01*
X2397296Y1688229D01*
X2397416Y1689108D01*
X2397456Y1689998D01*
X2403456D01*
X2403496Y1689108D01*
D02*
G37*
G36*
X2303496D02*
X2303616Y1688229D01*
X2303816Y1687361D01*
X2304096Y1686505D01*
X2304456Y1685659D01*
X2304896Y1684825D01*
X2305416Y1684002D01*
X2306016Y1683190D01*
X2306696Y1682389D01*
X2307456Y1681600D01*
X2293456D01*
X2294216Y1682389D01*
X2294896Y1683190D01*
X2295496Y1684002D01*
X2296016Y1684825D01*
X2296456Y1685659D01*
X2296816Y1686505D01*
X2297096Y1687361D01*
X2297296Y1688229D01*
X2297416Y1689108D01*
X2297456Y1689998D01*
X2303456D01*
X2303496Y1689108D01*
D02*
G37*
G36*
X2203496D02*
X2203616Y1688229D01*
X2203816Y1687361D01*
X2204096Y1686505D01*
X2204456Y1685659D01*
X2204896Y1684825D01*
X2205416Y1684002D01*
X2206016Y1683190D01*
X2206696Y1682389D01*
X2207456Y1681600D01*
X2193456D01*
X2194216Y1682389D01*
X2194896Y1683190D01*
X2195496Y1684002D01*
X2196016Y1684825D01*
X2196456Y1685659D01*
X2196816Y1686505D01*
X2197096Y1687361D01*
X2197296Y1688229D01*
X2197416Y1689108D01*
X2197456Y1689998D01*
X2203456D01*
X2203496Y1689108D01*
D02*
G37*
G36*
X2003496D02*
X2003616Y1688229D01*
X2003816Y1687361D01*
X2004096Y1686505D01*
X2004456Y1685659D01*
X2004896Y1684825D01*
X2005416Y1684002D01*
X2006016Y1683190D01*
X2006696Y1682389D01*
X2007456Y1681600D01*
X1993456D01*
X1994216Y1682389D01*
X1994896Y1683190D01*
X1995496Y1684002D01*
X1996016Y1684825D01*
X1996456Y1685659D01*
X1996816Y1686505D01*
X1997096Y1687361D01*
X1997296Y1688229D01*
X1997416Y1689108D01*
X1997456Y1689998D01*
X2003456D01*
X2003496Y1689108D01*
D02*
G37*
G36*
X2109582Y1690458D02*
X2108442Y1690398D01*
X2107422Y1690218D01*
X2106522Y1689918D01*
X2105742Y1689498D01*
X2105082Y1688958D01*
X2104542Y1688298D01*
X2104122Y1687518D01*
X2103997Y1687143D01*
X2104217Y1686464D01*
X2104573Y1685614D01*
X2105009Y1684774D01*
X2105524Y1683944D01*
X2106119Y1683123D01*
X2106793Y1682312D01*
X2107546Y1681511D01*
X2093547Y1681687D01*
X2094314Y1682465D01*
X2095000Y1683256D01*
X2095605Y1684059D01*
X2096130Y1684875D01*
X2096574Y1685703D01*
X2096937Y1686544D01*
X2097151Y1687192D01*
X2097042Y1687518D01*
X2096622Y1688298D01*
X2096082Y1688958D01*
X2095423Y1689498D01*
X2094642Y1689918D01*
X2093742Y1690218D01*
X2092722Y1690398D01*
X2091582Y1690458D01*
X2100582Y1696458D01*
X2109582Y1690458D01*
D02*
G37*
G36*
X2509777D02*
X2508637Y1690398D01*
X2507617Y1690218D01*
X2506717Y1689918D01*
X2505937Y1689498D01*
X2505277Y1688958D01*
X2504737Y1688298D01*
X2504317Y1687518D01*
X2504178Y1687102D01*
X2504402Y1686397D01*
X2504753Y1685542D01*
X2505183Y1684693D01*
X2505690Y1683852D01*
X2506276Y1683018D01*
X2506940Y1682191D01*
X2507682Y1681371D01*
X2493689Y1681821D01*
X2494466Y1682580D01*
X2495161Y1683354D01*
X2495774Y1684143D01*
X2496305Y1684948D01*
X2496755Y1685767D01*
X2497123Y1686602D01*
X2497334Y1687228D01*
X2497237Y1687518D01*
X2496817Y1688298D01*
X2496277Y1688958D01*
X2495617Y1689498D01*
X2494837Y1689918D01*
X2493937Y1690218D01*
X2492917Y1690398D01*
X2491777Y1690458D01*
X2500777Y1696458D01*
X2509777Y1690458D01*
D02*
G37*
G36*
X2592509Y1687103D02*
X2593212Y1686566D01*
X2593965Y1686090D01*
X2594769Y1685674D01*
X2595622Y1685319D01*
X2596526Y1685025D01*
X2597479Y1684792D01*
X2598482Y1684619D01*
X2599536Y1684507D01*
X2600639Y1684456D01*
X2590464Y1674841D01*
X2590472Y1675928D01*
X2590413Y1676968D01*
X2590285Y1677961D01*
X2590089Y1678906D01*
X2589826Y1679804D01*
X2589494Y1680655D01*
X2589095Y1681458D01*
X2588627Y1682214D01*
X2588091Y1682923D01*
X2587487Y1683584D01*
X2591855Y1687701D01*
X2592509Y1687103D01*
D02*
G37*
G36*
X2629512Y1665150D02*
X2628415Y1664703D01*
X2625474Y1663301D01*
X2624611Y1662813D01*
X2623058Y1661808D01*
X2622370Y1661291D01*
X2621740Y1660763D01*
X2621168Y1660225D01*
X2615092Y1662635D01*
X2615724Y1663331D01*
X2616250Y1664050D01*
X2616669Y1664792D01*
X2616982Y1665557D01*
X2617188Y1666344D01*
X2617288Y1667153D01*
X2617281Y1667985D01*
X2617169Y1668840D01*
X2616949Y1669717D01*
X2616624Y1670617D01*
X2629512Y1665150D01*
D02*
G37*
G36*
X2484466Y1679866D02*
X2484923Y1678380D01*
X2484456Y1676034D01*
Y1672882D01*
X2485071Y1669791D01*
X2486277Y1666879D01*
X2488028Y1664259D01*
X2490257Y1662030D01*
X2492877Y1660279D01*
X2495789Y1659073D01*
X2497256Y1658781D01*
Y1638577D01*
X2497127Y1638574D01*
X2496959Y1638536D01*
X2485856D01*
X2485856Y1638536D01*
X2483507Y1638226D01*
X2481317Y1637320D01*
X2479437Y1635877D01*
X2460506Y1616946D01*
X2454506Y1619431D01*
Y1631708D01*
Y1641208D01*
X2441006D01*
Y1647208D01*
X2454506D01*
Y1655703D01*
X2454506D01*
X2454506D01*
X2458554Y1660026D01*
X2458985Y1660380D01*
X2461456Y1662030D01*
X2463684Y1664259D01*
X2465435Y1666879D01*
X2466641Y1669791D01*
X2466973Y1671458D01*
X2451256D01*
Y1677458D01*
X2466973D01*
X2466789Y1678380D01*
X2467246Y1679866D01*
X2470931Y1684380D01*
X2480781D01*
X2484466Y1679866D01*
D02*
G37*
G36*
X2284466Y1679866D02*
X2284923Y1678380D01*
X2284456Y1676034D01*
Y1672882D01*
X2285071Y1669791D01*
X2286277Y1666879D01*
X2288028Y1664259D01*
X2290257Y1662030D01*
X2292877Y1660279D01*
X2292970Y1660241D01*
X2297506Y1656708D01*
X2297506Y1655254D01*
Y1633827D01*
X2297377Y1633824D01*
X2297209Y1633786D01*
X2271106D01*
X2268757Y1633476D01*
X2266567Y1632570D01*
X2264687Y1631127D01*
X2260049Y1626489D01*
X2254506Y1628785D01*
Y1631708D01*
Y1641208D01*
X2241006D01*
Y1647208D01*
X2254506D01*
Y1655703D01*
X2254506D01*
X2254506D01*
X2258554Y1660026D01*
X2258985Y1660380D01*
X2261456Y1662030D01*
X2263684Y1664259D01*
X2265435Y1666879D01*
X2266641Y1669791D01*
X2266973Y1671458D01*
X2251256D01*
Y1677458D01*
X2266973D01*
X2266789Y1678380D01*
X2267246Y1679866D01*
X2270931Y1684380D01*
X2280781D01*
X2284466Y1679866D01*
D02*
G37*
G36*
X2184466D02*
X2184923Y1678380D01*
X2184456Y1676034D01*
Y1672882D01*
X2185071Y1669791D01*
X2186277Y1666879D01*
X2188028Y1664259D01*
X2190257Y1662030D01*
X2192766Y1660353D01*
X2197256Y1656708D01*
X2197256Y1655628D01*
Y1633827D01*
X2197127Y1633824D01*
X2196960Y1633786D01*
X2186106D01*
X2186106Y1633786D01*
X2183757Y1633477D01*
X2181567Y1632570D01*
X2179687Y1631127D01*
X2179687Y1631127D01*
X2160321Y1611760D01*
X2154506Y1614431D01*
Y1631708D01*
Y1641208D01*
X2141006D01*
Y1647208D01*
X2154506D01*
Y1655703D01*
X2154506D01*
X2154506D01*
X2158554Y1660026D01*
X2158985Y1660380D01*
X2161456Y1662030D01*
X2163684Y1664259D01*
X2165435Y1666879D01*
X2166641Y1669791D01*
X2166973Y1671458D01*
X2151256D01*
Y1677458D01*
X2166973D01*
X2166789Y1678380D01*
X2167246Y1679866D01*
X2170931Y1684380D01*
X2180781D01*
X2184466Y1679866D01*
D02*
G37*
G36*
X2516795Y1659918D02*
X2516910Y1658243D01*
X2517011Y1657562D01*
X2517142Y1656986D01*
X2517301Y1656515D01*
X2517488Y1656149D01*
X2517705Y1655887D01*
X2517951Y1655730D01*
X2518226Y1655678D01*
X2508546Y1655647D01*
X2508970Y1655701D01*
X2509350Y1655860D01*
X2509685Y1656124D01*
X2509976Y1656493D01*
X2510222Y1656967D01*
X2510423Y1657546D01*
X2510579Y1658230D01*
X2510691Y1659019D01*
X2510758Y1659913D01*
X2510780Y1660912D01*
X2516780D01*
X2516795Y1659918D01*
D02*
G37*
G36*
X2614166Y1653734D02*
X2614283Y1652019D01*
X2614353Y1651600D01*
X2614439Y1651257D01*
X2614540Y1650990D01*
X2614658Y1650800D01*
X2614790Y1650685D01*
X2614938Y1650647D01*
X2607378D01*
X2607526Y1650685D01*
X2607658Y1650800D01*
X2607776Y1650990D01*
X2607877Y1651257D01*
X2607963Y1651600D01*
X2608033Y1652019D01*
X2608088Y1652514D01*
X2608150Y1653734D01*
X2608158Y1654458D01*
X2614158D01*
X2614166Y1653734D01*
D02*
G37*
G36*
X2414438Y1655532D02*
X2414528Y1654507D01*
X2414678Y1653602D01*
X2414888Y1652818D01*
X2415158Y1652155D01*
X2415488Y1651612D01*
X2415878Y1651190D01*
X2416328Y1650888D01*
X2416838Y1650708D01*
X2417408Y1650647D01*
X2405408D01*
X2405978Y1650708D01*
X2406488Y1650888D01*
X2406938Y1651190D01*
X2407328Y1651612D01*
X2407658Y1652155D01*
X2407928Y1652818D01*
X2408138Y1653602D01*
X2408288Y1654507D01*
X2408378Y1655532D01*
X2408408Y1656678D01*
X2414408D01*
X2414438Y1655532D01*
D02*
G37*
G36*
X2314188D02*
X2314278Y1654507D01*
X2314428Y1653602D01*
X2314638Y1652818D01*
X2314908Y1652155D01*
X2315238Y1651612D01*
X2315628Y1651190D01*
X2316078Y1650888D01*
X2316588Y1650708D01*
X2317158Y1650647D01*
X2305158D01*
X2305728Y1650708D01*
X2306238Y1650888D01*
X2306688Y1651190D01*
X2307078Y1651612D01*
X2307408Y1652155D01*
X2307678Y1652818D01*
X2307888Y1653602D01*
X2308038Y1654507D01*
X2308128Y1655532D01*
X2308158Y1656678D01*
X2314158D01*
X2314188Y1655532D01*
D02*
G37*
G36*
X2214438D02*
X2214528Y1654507D01*
X2214678Y1653602D01*
X2214888Y1652818D01*
X2215158Y1652155D01*
X2215488Y1651612D01*
X2215878Y1651190D01*
X2216328Y1650888D01*
X2216838Y1650708D01*
X2217408Y1650647D01*
X2205408D01*
X2205978Y1650708D01*
X2206488Y1650888D01*
X2206938Y1651190D01*
X2207328Y1651612D01*
X2207658Y1652155D01*
X2207928Y1652818D01*
X2208138Y1653602D01*
X2208288Y1654507D01*
X2208378Y1655532D01*
X2208408Y1656678D01*
X2214408D01*
X2214438Y1655532D01*
D02*
G37*
G36*
X2114438D02*
X2114528Y1654507D01*
X2114678Y1653602D01*
X2114888Y1652818D01*
X2115158Y1652155D01*
X2115488Y1651612D01*
X2115878Y1651190D01*
X2116328Y1650888D01*
X2116838Y1650708D01*
X2117408Y1650647D01*
X2105408D01*
X2105978Y1650708D01*
X2106488Y1650888D01*
X2106938Y1651190D01*
X2107328Y1651612D01*
X2107658Y1652155D01*
X2107928Y1652818D01*
X2108138Y1653602D01*
X2108288Y1654507D01*
X2108378Y1655532D01*
X2108408Y1656678D01*
X2114408D01*
X2114438Y1655532D01*
D02*
G37*
G36*
X2013786D02*
X2013876Y1654507D01*
X2014026Y1653602D01*
X2014236Y1652818D01*
X2014506Y1652155D01*
X2014836Y1651612D01*
X2015226Y1651190D01*
X2015676Y1650888D01*
X2016186Y1650708D01*
X2016756Y1650647D01*
X2004756D01*
X2005326Y1650708D01*
X2005836Y1650888D01*
X2006286Y1651190D01*
X2006676Y1651612D01*
X2007006Y1652155D01*
X2007276Y1652818D01*
X2007486Y1653602D01*
X2007636Y1654507D01*
X2007726Y1655532D01*
X2007756Y1656678D01*
X2013756D01*
X2013786Y1655532D01*
D02*
G37*
G36*
X2582896Y1679580D02*
X2582969Y1679460D01*
X2583382Y1679008D01*
X2583575Y1678753D01*
X2583743Y1678480D01*
X2583894Y1678176D01*
X2584030Y1677828D01*
X2584149Y1677422D01*
X2584247Y1676950D01*
X2584317Y1676403D01*
X2584353Y1675777D01*
X2584346Y1674889D01*
X2584456Y1674312D01*
Y1672882D01*
X2585071Y1669791D01*
X2586277Y1666879D01*
X2588028Y1664259D01*
X2590257Y1662030D01*
X2592766Y1660353D01*
X2597256Y1656708D01*
X2597256Y1655628D01*
Y1633827D01*
X2597126Y1633824D01*
X2596960Y1633786D01*
X2583606D01*
X2583606Y1633786D01*
X2581257Y1633477D01*
X2579067Y1632570D01*
X2577187Y1631127D01*
X2577187Y1631127D01*
X2540346Y1594286D01*
X2471361D01*
X2469065Y1599829D01*
X2489616Y1620381D01*
X2496959D01*
X2497127Y1620343D01*
X2497256Y1620339D01*
Y1617208D01*
X2524256D01*
Y1617208D01*
X2527256Y1617208D01*
X2527256Y1617208D01*
X2554256D01*
Y1636708D01*
Y1646208D01*
X2540756D01*
Y1652208D01*
X2554256D01*
Y1658741D01*
X2555923Y1659073D01*
X2558835Y1660279D01*
X2561455Y1662030D01*
X2563684Y1664259D01*
X2565435Y1666879D01*
X2566641Y1669791D01*
X2566973Y1671458D01*
X2551256D01*
Y1677458D01*
X2566973D01*
X2566790Y1678380D01*
X2567246Y1679866D01*
X2570931Y1684380D01*
X2578096D01*
X2582896Y1679580D01*
D02*
G37*
G36*
X2533317Y1623708D02*
X2533257Y1624278D01*
X2533076Y1624788D01*
X2532774Y1625238D01*
X2532352Y1625628D01*
X2531810Y1625958D01*
X2531146Y1626228D01*
X2530362Y1626438D01*
X2529458Y1626588D01*
X2528432Y1626678D01*
X2527287Y1626708D01*
Y1632708D01*
X2528432Y1632738D01*
X2529458Y1632828D01*
X2530362Y1632978D01*
X2531146Y1633188D01*
X2531810Y1633458D01*
X2532352Y1633788D01*
X2532774Y1634178D01*
X2533076Y1634628D01*
X2533257Y1635138D01*
X2533317Y1635708D01*
Y1623708D01*
D02*
G37*
G36*
X2518255Y1635138D02*
X2518436Y1634628D01*
X2518738Y1634178D01*
X2519160Y1633788D01*
X2519703Y1633458D01*
X2520366Y1633188D01*
X2521150Y1632978D01*
X2522055Y1632828D01*
X2523080Y1632738D01*
X2524226Y1632708D01*
Y1626708D01*
X2523080Y1626678D01*
X2522055Y1626588D01*
X2521150Y1626438D01*
X2520366Y1626228D01*
X2519703Y1625958D01*
X2519160Y1625628D01*
X2518738Y1625238D01*
X2518436Y1624788D01*
X2518255Y1624278D01*
X2518195Y1623708D01*
Y1635708D01*
X2518255Y1635138D01*
D02*
G37*
G36*
X2503317Y1623458D02*
X2503257Y1624028D01*
X2503076Y1624538D01*
X2502774Y1624988D01*
X2502352Y1625378D01*
X2501810Y1625708D01*
X2501146Y1625978D01*
X2500362Y1626188D01*
X2499458Y1626338D01*
X2498432Y1626428D01*
X2497287Y1626458D01*
Y1632458D01*
X2498432Y1632488D01*
X2499458Y1632578D01*
X2500362Y1632728D01*
X2501146Y1632938D01*
X2501810Y1633208D01*
X2502352Y1633538D01*
X2502774Y1633928D01*
X2503076Y1634378D01*
X2503257Y1634888D01*
X2503317Y1635458D01*
Y1623458D01*
D02*
G37*
G36*
X2603317Y1618708D02*
X2603257Y1619278D01*
X2603076Y1619788D01*
X2602774Y1620238D01*
X2602352Y1620628D01*
X2601810Y1620958D01*
X2601146Y1621228D01*
X2600362Y1621438D01*
X2599458Y1621588D01*
X2598433Y1621678D01*
X2597287Y1621708D01*
Y1627708D01*
X2598433Y1627738D01*
X2599458Y1627828D01*
X2600362Y1627978D01*
X2601146Y1628188D01*
X2601810Y1628458D01*
X2602352Y1628788D01*
X2602774Y1629178D01*
X2603076Y1629628D01*
X2603257Y1630138D01*
X2603317Y1630708D01*
Y1618708D01*
D02*
G37*
G36*
X2403317D02*
X2403257Y1619278D01*
X2403076Y1619788D01*
X2402774Y1620238D01*
X2402352Y1620628D01*
X2401810Y1620958D01*
X2401146Y1621228D01*
X2400362Y1621438D01*
X2399458Y1621588D01*
X2398432Y1621678D01*
X2397287Y1621708D01*
Y1627708D01*
X2398432Y1627738D01*
X2399458Y1627828D01*
X2400362Y1627978D01*
X2401146Y1628188D01*
X2401810Y1628458D01*
X2402352Y1628788D01*
X2402774Y1629178D01*
X2403076Y1629628D01*
X2403257Y1630138D01*
X2403317Y1630708D01*
Y1618708D01*
D02*
G37*
G36*
X2203317D02*
X2203257Y1619278D01*
X2203076Y1619788D01*
X2202774Y1620238D01*
X2202352Y1620628D01*
X2201810Y1620958D01*
X2201146Y1621228D01*
X2200362Y1621438D01*
X2199458Y1621588D01*
X2198432Y1621678D01*
X2197287Y1621708D01*
Y1627708D01*
X2198432Y1627738D01*
X2199458Y1627828D01*
X2200362Y1627978D01*
X2201146Y1628188D01*
X2201810Y1628458D01*
X2202352Y1628788D01*
X2202774Y1629178D01*
X2203076Y1629628D01*
X2203257Y1630138D01*
X2203317Y1630708D01*
Y1618708D01*
D02*
G37*
G36*
X2033417D02*
X2033357Y1619278D01*
X2033176Y1619788D01*
X2032874Y1620238D01*
X2032452Y1620628D01*
X2031909Y1620958D01*
X2031246Y1621228D01*
X2030462Y1621438D01*
X2029558Y1621588D01*
X2028532Y1621678D01*
X2027387Y1621708D01*
Y1627708D01*
X2028532Y1627738D01*
X2029558Y1627828D01*
X2030462Y1627978D01*
X2031246Y1628188D01*
X2031909Y1628458D01*
X2032452Y1628788D01*
X2032874Y1629178D01*
X2033176Y1629628D01*
X2033357Y1630138D01*
X2033417Y1630708D01*
Y1618708D01*
D02*
G37*
G36*
X2018255Y1630138D02*
X2018436Y1629628D01*
X2018738Y1629178D01*
X2019160Y1628788D01*
X2019703Y1628458D01*
X2020366Y1628188D01*
X2021150Y1627978D01*
X2022055Y1627828D01*
X2023080Y1627738D01*
X2024226Y1627708D01*
Y1621708D01*
X2023080Y1621678D01*
X2022055Y1621588D01*
X2021150Y1621438D01*
X2020366Y1621228D01*
X2019703Y1620958D01*
X2019160Y1620628D01*
X2018738Y1620238D01*
X2018436Y1619788D01*
X2018255Y1619278D01*
X2018195Y1618708D01*
Y1630708D01*
X2018255Y1630138D01*
D02*
G37*
G36*
X2633317Y1618708D02*
X2633257Y1619278D01*
X2633076Y1619788D01*
X2632774Y1620238D01*
X2632352Y1620628D01*
X2631810Y1620958D01*
X2631146Y1621228D01*
X2630362Y1621438D01*
X2629458Y1621588D01*
X2628433Y1621678D01*
X2627287Y1621708D01*
Y1627708D01*
X2628433Y1627738D01*
X2629458Y1627828D01*
X2630362Y1627978D01*
X2631146Y1628188D01*
X2631810Y1628458D01*
X2632352Y1628788D01*
X2632774Y1629178D01*
X2633076Y1629628D01*
X2633257Y1630138D01*
X2633317Y1630708D01*
Y1618708D01*
D02*
G37*
G36*
X2618256Y1630138D02*
X2618437Y1629628D01*
X2618738Y1629178D01*
X2619160Y1628788D01*
X2619703Y1628458D01*
X2620366Y1628188D01*
X2621150Y1627978D01*
X2622055Y1627828D01*
X2623080Y1627738D01*
X2624226Y1627708D01*
Y1621708D01*
X2623080Y1621678D01*
X2622055Y1621588D01*
X2621150Y1621438D01*
X2620366Y1621228D01*
X2619703Y1620958D01*
X2619160Y1620628D01*
X2618738Y1620238D01*
X2618437Y1619788D01*
X2618256Y1619278D01*
X2618195Y1618708D01*
Y1630708D01*
X2618256Y1630138D01*
D02*
G37*
G36*
X2433567Y1618708D02*
X2433507Y1619278D01*
X2433326Y1619788D01*
X2433024Y1620238D01*
X2432602Y1620628D01*
X2432060Y1620958D01*
X2431396Y1621228D01*
X2430612Y1621438D01*
X2429708Y1621588D01*
X2428683Y1621678D01*
X2427537Y1621708D01*
Y1627708D01*
X2428683Y1627738D01*
X2429708Y1627828D01*
X2430612Y1627978D01*
X2431396Y1628188D01*
X2432060Y1628458D01*
X2432602Y1628788D01*
X2433024Y1629178D01*
X2433326Y1629628D01*
X2433507Y1630138D01*
X2433567Y1630708D01*
Y1618708D01*
D02*
G37*
G36*
X2418255Y1630138D02*
X2418436Y1629628D01*
X2418738Y1629178D01*
X2419160Y1628788D01*
X2419703Y1628458D01*
X2420366Y1628188D01*
X2421150Y1627978D01*
X2422055Y1627828D01*
X2423080Y1627738D01*
X2424226Y1627708D01*
Y1621708D01*
X2423080Y1621678D01*
X2422055Y1621588D01*
X2421150Y1621438D01*
X2420366Y1621228D01*
X2419703Y1620958D01*
X2419160Y1620628D01*
X2418738Y1620238D01*
X2418436Y1619788D01*
X2418255Y1619278D01*
X2418195Y1618708D01*
Y1630708D01*
X2418255Y1630138D01*
D02*
G37*
G36*
X2333317Y1618708D02*
X2333257Y1619278D01*
X2333076Y1619788D01*
X2332774Y1620238D01*
X2332352Y1620628D01*
X2331810Y1620958D01*
X2331146Y1621228D01*
X2330362Y1621438D01*
X2329458Y1621588D01*
X2328432Y1621678D01*
X2327287Y1621708D01*
Y1627708D01*
X2328432Y1627738D01*
X2329458Y1627828D01*
X2330362Y1627978D01*
X2331146Y1628188D01*
X2331810Y1628458D01*
X2332352Y1628788D01*
X2332774Y1629178D01*
X2333076Y1629628D01*
X2333257Y1630138D01*
X2333317Y1630708D01*
Y1618708D01*
D02*
G37*
G36*
X2318506Y1630138D02*
X2318686Y1629628D01*
X2318988Y1629178D01*
X2319410Y1628788D01*
X2319953Y1628458D01*
X2320616Y1628188D01*
X2321400Y1627978D01*
X2322305Y1627828D01*
X2323330Y1627738D01*
X2324476Y1627708D01*
Y1621708D01*
X2323330Y1621678D01*
X2322305Y1621588D01*
X2321400Y1621438D01*
X2320616Y1621228D01*
X2319953Y1620958D01*
X2319410Y1620628D01*
X2318988Y1620238D01*
X2318686Y1619788D01*
X2318506Y1619278D01*
X2318445Y1618708D01*
Y1630708D01*
X2318506Y1630138D01*
D02*
G37*
G36*
X2303567Y1618708D02*
X2303507Y1619278D01*
X2303326Y1619788D01*
X2303024Y1620238D01*
X2302602Y1620628D01*
X2302060Y1620958D01*
X2301396Y1621228D01*
X2300612Y1621438D01*
X2299708Y1621588D01*
X2298683Y1621678D01*
X2297537Y1621708D01*
Y1627708D01*
X2298683Y1627738D01*
X2299708Y1627828D01*
X2300612Y1627978D01*
X2301396Y1628188D01*
X2302060Y1628458D01*
X2302602Y1628788D01*
X2303024Y1629178D01*
X2303326Y1629628D01*
X2303507Y1630138D01*
X2303567Y1630708D01*
Y1618708D01*
D02*
G37*
G36*
X2233567D02*
X2233507Y1619278D01*
X2233326Y1619788D01*
X2233024Y1620238D01*
X2232602Y1620628D01*
X2232059Y1620958D01*
X2231396Y1621228D01*
X2230612Y1621438D01*
X2229708Y1621588D01*
X2228683Y1621678D01*
X2227537Y1621708D01*
Y1627708D01*
X2228683Y1627738D01*
X2229708Y1627828D01*
X2230612Y1627978D01*
X2231396Y1628188D01*
X2232059Y1628458D01*
X2232602Y1628788D01*
X2233024Y1629178D01*
X2233326Y1629628D01*
X2233507Y1630138D01*
X2233567Y1630708D01*
Y1618708D01*
D02*
G37*
G36*
X2218255Y1630138D02*
X2218436Y1629628D01*
X2218738Y1629178D01*
X2219160Y1628788D01*
X2219703Y1628458D01*
X2220366Y1628188D01*
X2221150Y1627978D01*
X2222055Y1627828D01*
X2223080Y1627738D01*
X2224226Y1627708D01*
Y1621708D01*
X2223080Y1621678D01*
X2222055Y1621588D01*
X2221150Y1621438D01*
X2220366Y1621228D01*
X2219703Y1620958D01*
X2219160Y1620628D01*
X2218738Y1620238D01*
X2218436Y1619788D01*
X2218255Y1619278D01*
X2218195Y1618708D01*
Y1630708D01*
X2218255Y1630138D01*
D02*
G37*
G36*
X2133567Y1618708D02*
X2133507Y1619278D01*
X2133326Y1619788D01*
X2133024Y1620238D01*
X2132602Y1620628D01*
X2132059Y1620958D01*
X2131396Y1621228D01*
X2130612Y1621438D01*
X2129708Y1621588D01*
X2128683Y1621678D01*
X2127537Y1621708D01*
Y1627708D01*
X2128683Y1627738D01*
X2129708Y1627828D01*
X2130612Y1627978D01*
X2131396Y1628188D01*
X2132059Y1628458D01*
X2132602Y1628788D01*
X2133024Y1629178D01*
X2133326Y1629628D01*
X2133507Y1630138D01*
X2133567Y1630708D01*
Y1618708D01*
D02*
G37*
G36*
X2118255Y1630138D02*
X2118436Y1629628D01*
X2118738Y1629178D01*
X2119160Y1628788D01*
X2119703Y1628458D01*
X2120366Y1628188D01*
X2121150Y1627978D01*
X2122055Y1627828D01*
X2123080Y1627738D01*
X2124226Y1627708D01*
Y1621708D01*
X2123080Y1621678D01*
X2122055Y1621588D01*
X2121150Y1621438D01*
X2120366Y1621228D01*
X2119703Y1620958D01*
X2119160Y1620628D01*
X2118738Y1620238D01*
X2118436Y1619788D01*
X2118255Y1619278D01*
X2118195Y1618708D01*
Y1630708D01*
X2118255Y1630138D01*
D02*
G37*
G36*
X2048355D02*
X2048536Y1629628D01*
X2048838Y1629178D01*
X2049260Y1628788D01*
X2049803Y1628458D01*
X2050466Y1628188D01*
X2051250Y1627978D01*
X2052155Y1627828D01*
X2053180Y1627738D01*
X2054326Y1627708D01*
Y1621708D01*
X2053180Y1621678D01*
X2052155Y1621588D01*
X2051250Y1621438D01*
X2050466Y1621228D01*
X2049803Y1620958D01*
X2049260Y1620628D01*
X2048838Y1620238D01*
X2048536Y1619788D01*
X2048355Y1619278D01*
X2048295Y1618708D01*
Y1630708D01*
X2048355Y1630138D01*
D02*
G37*
G36*
X2384466Y1679866D02*
X2384923Y1678380D01*
X2384456Y1676034D01*
Y1672882D01*
X2385071Y1669791D01*
X2386277Y1666879D01*
X2388028Y1664259D01*
X2390257Y1662030D01*
X2392766Y1660353D01*
X2397256Y1656708D01*
X2397256Y1655628D01*
Y1633827D01*
X2397127Y1633824D01*
X2396960Y1633786D01*
X2386106D01*
X2383757Y1633476D01*
X2381567Y1632570D01*
X2379687Y1631127D01*
X2379687Y1631127D01*
X2366846Y1618286D01*
X2354256D01*
Y1631708D01*
Y1641208D01*
X2340756D01*
Y1647208D01*
X2354256D01*
Y1655329D01*
X2354256Y1656708D01*
X2358786Y1660259D01*
X2358835Y1660279D01*
X2361456Y1662030D01*
X2363684Y1664259D01*
X2365435Y1666879D01*
X2366641Y1669791D01*
X2366973Y1671458D01*
X2351256D01*
Y1677458D01*
X2366973D01*
X2366789Y1678380D01*
X2367246Y1679866D01*
X2370931Y1684380D01*
X2380781D01*
X2384466Y1679866D01*
D02*
G37*
G36*
X2084466D02*
X2084923Y1678380D01*
X2084456Y1676034D01*
Y1672882D01*
X2085071Y1669791D01*
X2086277Y1666879D01*
X2088028Y1664259D01*
X2090257Y1662030D01*
X2092766Y1660353D01*
X2097256Y1656708D01*
X2097256Y1655628D01*
Y1631708D01*
Y1619381D01*
X2091256Y1616896D01*
X2077025Y1631127D01*
X2075145Y1632570D01*
X2072956Y1633476D01*
X2070606Y1633786D01*
X2058938D01*
X2054356Y1639663D01*
Y1641208D01*
X2040856D01*
Y1647208D01*
X2054356D01*
X2054356Y1656708D01*
X2058868Y1660301D01*
X2061456Y1662030D01*
X2063684Y1664259D01*
X2065435Y1666879D01*
X2066641Y1669791D01*
X2066973Y1671458D01*
X2051256D01*
Y1677458D01*
X2066973D01*
X2066789Y1678380D01*
X2067246Y1679866D01*
X2070931Y1684380D01*
X2080781D01*
X2084466Y1679866D01*
D02*
G37*
G36*
X2116186Y1618179D02*
X2115676Y1617999D01*
X2115226Y1617699D01*
X2114836Y1617279D01*
X2114506Y1616739D01*
X2114236Y1616079D01*
X2114026Y1615299D01*
X2113876Y1614399D01*
X2113786Y1613379D01*
X2113756Y1612239D01*
X2107756D01*
X2107726Y1613379D01*
X2107636Y1614399D01*
X2107486Y1615299D01*
X2107276Y1616079D01*
X2107006Y1616739D01*
X2106676Y1617279D01*
X2106286Y1617699D01*
X2105836Y1617999D01*
X2105326Y1618179D01*
X2104756Y1618239D01*
X2116756D01*
X2116186Y1618179D01*
D02*
G37*
G36*
X2093078Y1589398D02*
Y1538243D01*
X2093046Y1538111D01*
X2093016Y1537484D01*
X2092967Y1537147D01*
X2092952Y1537082D01*
X2091369Y1536087D01*
X2089915Y1535408D01*
X2088823Y1535166D01*
X2086768Y1534944D01*
X2085024Y1535778D01*
X2084572Y1536080D01*
X2081569Y1537324D01*
X2078381Y1537958D01*
X2075131D01*
X2071943Y1537324D01*
X2068940Y1536080D01*
X2066238Y1534274D01*
X2064056Y1532093D01*
X2061874Y1534274D01*
X2059172Y1536080D01*
X2056169Y1537324D01*
X2052981Y1537958D01*
X2049731D01*
X2046543Y1537324D01*
X2043540Y1536080D01*
X2040838Y1534274D01*
X2038656Y1532093D01*
X2036474Y1534274D01*
X2033772Y1536080D01*
X2030769Y1537324D01*
X2028956Y1537685D01*
Y1521458D01*
Y1505232D01*
X2030769Y1505592D01*
X2033772Y1506836D01*
X2036474Y1508642D01*
X2038656Y1510824D01*
X2040838Y1508642D01*
X2043540Y1506836D01*
X2046543Y1505592D01*
X2049731Y1504958D01*
X2052981D01*
X2056169Y1505592D01*
X2059172Y1506836D01*
X2061874Y1508642D01*
X2064056Y1510824D01*
X2066238Y1508642D01*
X2068940Y1506836D01*
X2071943Y1505592D01*
X2075131Y1504958D01*
X2078381D01*
X2081569Y1505592D01*
X2084572Y1506836D01*
X2087274Y1508642D01*
X2089456Y1510824D01*
X2091638Y1508642D01*
X2094340Y1506836D01*
X2097343Y1505592D01*
X2100531Y1504958D01*
X2103781D01*
X2106969Y1505592D01*
X2109972Y1506836D01*
X2112674Y1508642D01*
X2114856Y1510824D01*
X2117038Y1508642D01*
X2119740Y1506836D01*
X2122743Y1505592D01*
X2125931Y1504958D01*
X2129181D01*
X2132369Y1505592D01*
X2135372Y1506836D01*
X2138074Y1508642D01*
X2140256Y1510824D01*
X2142438Y1508642D01*
X2145140Y1506836D01*
X2148143Y1505592D01*
X2151331Y1504958D01*
X2154581D01*
X2157769Y1505592D01*
X2160772Y1506836D01*
X2163474Y1508642D01*
X2165656Y1510824D01*
X2167838Y1508642D01*
X2170540Y1506836D01*
X2173543Y1505592D01*
X2176731Y1504958D01*
X2179981D01*
X2183169Y1505592D01*
X2186172Y1506836D01*
X2188874Y1508642D01*
X2191056Y1510824D01*
X2193238Y1508642D01*
X2195940Y1506836D01*
X2198943Y1505592D01*
X2202131Y1504958D01*
X2205381D01*
X2208569Y1505592D01*
X2211572Y1506836D01*
X2214274Y1508642D01*
X2216456Y1510824D01*
X2218638Y1508642D01*
X2221340Y1506836D01*
X2224343Y1505592D01*
X2227531Y1504958D01*
X2230781D01*
X2233969Y1505592D01*
X2236972Y1506836D01*
X2239674Y1508642D01*
X2241856Y1510824D01*
X2244038Y1508642D01*
X2246740Y1506836D01*
X2249743Y1505592D01*
X2252931Y1504958D01*
X2256181D01*
X2259369Y1505592D01*
X2262372Y1506836D01*
X2265074Y1508642D01*
X2267256Y1510824D01*
X2269438Y1508642D01*
X2272140Y1506836D01*
X2275143Y1505592D01*
X2278331Y1504958D01*
X2281581D01*
X2284769Y1505592D01*
X2287772Y1506836D01*
X2290474Y1508642D01*
X2292656Y1510824D01*
X2294838Y1508642D01*
X2297540Y1506836D01*
X2300543Y1505592D01*
X2303731Y1504958D01*
X2306981D01*
X2310169Y1505592D01*
X2313172Y1506836D01*
X2315874Y1508642D01*
X2318056Y1510824D01*
X2320238Y1508642D01*
X2322940Y1506836D01*
X2325943Y1505592D01*
X2329131Y1504958D01*
X2332381D01*
X2335569Y1505592D01*
X2338572Y1506836D01*
X2341274Y1508642D01*
X2343456Y1510824D01*
X2345638Y1508642D01*
X2348340Y1506836D01*
X2351343Y1505592D01*
X2354531Y1504958D01*
X2357781D01*
X2360969Y1505592D01*
X2363972Y1506836D01*
X2366674Y1508642D01*
X2368972Y1510940D01*
X2370778Y1513642D01*
X2372022Y1516645D01*
X2372656Y1519833D01*
Y1523083D01*
X2372022Y1526271D01*
X2370778Y1529274D01*
X2368972Y1531976D01*
X2366818Y1534131D01*
X2366839Y1534749D01*
X2368710Y1540131D01*
X2672346D01*
X2691250Y1521227D01*
X2691326Y1521102D01*
X2691731Y1520661D01*
X2691928Y1520405D01*
X2692099Y1520139D01*
X2692249Y1519851D01*
X2692383Y1519531D01*
X2692501Y1519166D01*
X2692600Y1518749D01*
X2692676Y1518271D01*
X2692724Y1517725D01*
X2692740Y1516925D01*
X2692856Y1516400D01*
Y1515432D01*
X2693452Y1512437D01*
X2694620Y1509616D01*
X2696317Y1507077D01*
X2697002Y1506392D01*
X2697290Y1505940D01*
X2697845Y1505362D01*
X2698196Y1504943D01*
X2698481Y1504551D01*
X2698706Y1504185D01*
X2698881Y1503845D01*
X2699012Y1503523D01*
X2699109Y1503213D01*
X2699178Y1502904D01*
X2699219Y1502585D01*
X2699244Y1501986D01*
X2699279Y1501844D01*
Y1495458D01*
X2679106D01*
Y1481958D01*
X2676106D01*
Y1478958D01*
X2663606D01*
Y1472856D01*
Y1470873D01*
X2660098Y1468198D01*
X2658023Y1467451D01*
X2653334Y1470853D01*
Y1498063D01*
X2658585Y1501873D01*
X2659334Y1501955D01*
X2661830Y1501458D01*
X2664883D01*
X2667877Y1502054D01*
X2670698Y1503222D01*
X2673237Y1504919D01*
X2675396Y1507077D01*
X2677092Y1509616D01*
X2678260Y1512437D01*
X2678856Y1515432D01*
Y1518485D01*
X2678260Y1521479D01*
X2677092Y1524300D01*
X2675396Y1526839D01*
X2673237Y1528998D01*
X2670698Y1530694D01*
X2667877Y1531862D01*
X2664883Y1532458D01*
X2661830D01*
X2658835Y1531862D01*
X2656014Y1530694D01*
X2653476Y1528998D01*
X2651317Y1526839D01*
X2650686Y1525895D01*
X2649407Y1525726D01*
X2647217Y1524820D01*
X2645337Y1523377D01*
X2637837Y1515877D01*
X2636395Y1513997D01*
X2636204Y1513536D01*
X2440856D01*
X2438507Y1513226D01*
X2436317Y1512320D01*
X2434437Y1510877D01*
X2434437Y1510877D01*
X2407096Y1483536D01*
X1995456D01*
X1995456Y1483536D01*
X1993107Y1483226D01*
X1990917Y1482320D01*
X1989037Y1480877D01*
X1989037Y1480877D01*
X1969437Y1461277D01*
X1967995Y1459397D01*
X1967088Y1457208D01*
X1966779Y1454858D01*
Y1292158D01*
X1967088Y1289809D01*
X1967995Y1287619D01*
X1969437Y1285739D01*
X1982269Y1272908D01*
X1982339Y1272791D01*
X1982761Y1272327D01*
X1982965Y1272054D01*
X1983154Y1271745D01*
X1983332Y1271385D01*
X1983497Y1270962D01*
X1983644Y1270464D01*
X1983769Y1269884D01*
X1983864Y1269219D01*
X1983922Y1268464D01*
X1983940Y1267455D01*
X1984056Y1266921D01*
Y1265833D01*
X1984690Y1262645D01*
X1985934Y1259642D01*
X1987740Y1256940D01*
X1990038Y1254642D01*
X1992740Y1252836D01*
X1995743Y1251592D01*
X1998931Y1250958D01*
X2002181D01*
X2005369Y1251592D01*
X2008372Y1252836D01*
X2011074Y1254642D01*
X2013256Y1256824D01*
X2015438Y1254642D01*
X2018140Y1252836D01*
X2021143Y1251592D01*
X2022956Y1251232D01*
Y1267458D01*
Y1283685D01*
X2021143Y1283324D01*
X2018140Y1282080D01*
X2015438Y1280275D01*
X2013256Y1278093D01*
X2011074Y1280275D01*
X2008372Y1282080D01*
X2005369Y1283324D01*
X2002181Y1283958D01*
X2001093D01*
X2000559Y1284074D01*
X1999550Y1284092D01*
X1998796Y1284150D01*
X1998130Y1284245D01*
X1997551Y1284370D01*
X1997053Y1284518D01*
X1996629Y1284682D01*
X1996270Y1284860D01*
X1995960Y1285049D01*
X1995687Y1285254D01*
X1995223Y1285675D01*
X1995106Y1285746D01*
X1984934Y1295918D01*
Y1451098D01*
X1999216Y1465381D01*
X2410856D01*
X2413206Y1465690D01*
X2415395Y1466597D01*
X2417275Y1468039D01*
X2425039Y1475803D01*
X2430568Y1472847D01*
X2430456Y1472283D01*
Y1469033D01*
X2431090Y1465845D01*
X2432334Y1462842D01*
X2434140Y1460140D01*
X2435794Y1458486D01*
X2435980Y1458207D01*
X2432917Y1453335D01*
X2432721Y1453061D01*
X2427893Y1448233D01*
X2126853D01*
X2126853Y1448233D01*
X2124503Y1447923D01*
X2122314Y1447016D01*
X2120434Y1445574D01*
X2095737Y1420877D01*
X2094295Y1418997D01*
X2093388Y1416808D01*
X2093078Y1414458D01*
Y1284243D01*
X2093046Y1284111D01*
X2093016Y1283484D01*
X2092967Y1283147D01*
X2092952Y1283082D01*
X2091369Y1282087D01*
X2089915Y1281408D01*
X2088823Y1281165D01*
X2086768Y1280944D01*
X2085024Y1281778D01*
X2084572Y1282080D01*
X2081569Y1283324D01*
X2078381Y1283958D01*
X2075131D01*
X2071943Y1283324D01*
X2068940Y1282080D01*
X2066238Y1280275D01*
X2064056Y1278093D01*
X2061874Y1280275D01*
X2059172Y1282080D01*
X2056169Y1283324D01*
X2052981Y1283958D01*
X2049731D01*
X2046543Y1283324D01*
X2043540Y1282080D01*
X2040838Y1280275D01*
X2038656Y1278093D01*
X2036474Y1280275D01*
X2033772Y1282080D01*
X2030769Y1283324D01*
X2028956Y1283685D01*
Y1267458D01*
Y1251232D01*
X2030769Y1251592D01*
X2033772Y1252836D01*
X2036474Y1254642D01*
X2038656Y1256824D01*
X2040838Y1254642D01*
X2043540Y1252836D01*
X2046543Y1251592D01*
X2049731Y1250958D01*
X2052981D01*
X2056169Y1251592D01*
X2059172Y1252836D01*
X2061874Y1254642D01*
X2064056Y1256824D01*
X2066238Y1254642D01*
X2068940Y1252836D01*
X2071943Y1251592D01*
X2075131Y1250958D01*
X2078381D01*
X2081569Y1251592D01*
X2084572Y1252836D01*
X2087274Y1254642D01*
X2089456Y1256824D01*
X2091638Y1254642D01*
X2094340Y1252836D01*
X2097343Y1251592D01*
X2100531Y1250958D01*
X2103781D01*
X2106969Y1251592D01*
X2109972Y1252836D01*
X2112674Y1254642D01*
X2114856Y1256824D01*
X2117038Y1254642D01*
X2119740Y1252836D01*
X2122743Y1251592D01*
X2125931Y1250958D01*
X2129181D01*
X2132369Y1251592D01*
X2135372Y1252836D01*
X2138074Y1254642D01*
X2140256Y1256824D01*
X2142438Y1254642D01*
X2145140Y1252836D01*
X2148143Y1251592D01*
X2151331Y1250958D01*
X2154581D01*
X2157769Y1251592D01*
X2160772Y1252836D01*
X2163474Y1254642D01*
X2165656Y1256824D01*
X2167838Y1254642D01*
X2170540Y1252836D01*
X2173543Y1251592D01*
X2176731Y1250958D01*
X2179981D01*
X2183169Y1251592D01*
X2186172Y1252836D01*
X2188874Y1254642D01*
X2191056Y1256824D01*
X2193238Y1254642D01*
X2195940Y1252836D01*
X2198943Y1251592D01*
X2202131Y1250958D01*
X2205381D01*
X2208569Y1251592D01*
X2211572Y1252836D01*
X2214274Y1254642D01*
X2216456Y1256824D01*
X2218638Y1254642D01*
X2221340Y1252836D01*
X2224343Y1251592D01*
X2227531Y1250958D01*
X2230781D01*
X2233969Y1251592D01*
X2236972Y1252836D01*
X2239674Y1254642D01*
X2241856Y1256824D01*
X2244038Y1254642D01*
X2246740Y1252836D01*
X2249743Y1251592D01*
X2252931Y1250958D01*
X2256181D01*
X2259369Y1251592D01*
X2262372Y1252836D01*
X2265074Y1254642D01*
X2267256Y1256824D01*
X2269438Y1254642D01*
X2272140Y1252836D01*
X2275143Y1251592D01*
X2278331Y1250958D01*
X2281581D01*
X2284769Y1251592D01*
X2287772Y1252836D01*
X2290474Y1254642D01*
X2292656Y1256824D01*
X2294838Y1254642D01*
X2297540Y1252836D01*
X2300543Y1251592D01*
X2303731Y1250958D01*
X2306981D01*
X2310169Y1251592D01*
X2313172Y1252836D01*
X2315874Y1254642D01*
X2318056Y1256824D01*
X2320238Y1254642D01*
X2322940Y1252836D01*
X2325943Y1251592D01*
X2329131Y1250958D01*
X2332381D01*
X2335569Y1251592D01*
X2338572Y1252836D01*
X2341274Y1254642D01*
X2343456Y1256824D01*
X2345638Y1254642D01*
X2348340Y1252836D01*
X2351343Y1251592D01*
X2354531Y1250958D01*
X2357781D01*
X2360969Y1251592D01*
X2363972Y1252836D01*
X2366674Y1254642D01*
X2368972Y1256940D01*
X2370778Y1259642D01*
X2372022Y1262645D01*
X2372656Y1265833D01*
Y1269083D01*
X2372022Y1272271D01*
X2370778Y1275274D01*
X2368972Y1277976D01*
X2368203Y1278746D01*
X2367907Y1279205D01*
X2367207Y1279931D01*
X2366714Y1280506D01*
X2366311Y1281044D01*
X2365989Y1281542D01*
X2365742Y1281998D01*
X2365559Y1282414D01*
X2365430Y1282794D01*
X2365345Y1283147D01*
X2365296Y1283484D01*
X2365267Y1284111D01*
X2365234Y1284243D01*
Y1332863D01*
X2402448Y1370077D01*
X2524053D01*
X2526402Y1370387D01*
X2528592Y1371294D01*
X2530472Y1372736D01*
X2605775Y1448039D01*
X2607217Y1449919D01*
X2608124Y1452109D01*
X2608323Y1453616D01*
X2608470Y1454234D01*
X2608497Y1454994D01*
X2608508Y1455086D01*
X2610253Y1456373D01*
X2610959Y1456752D01*
X2611513Y1456964D01*
X2611965Y1457089D01*
X2612171Y1457128D01*
X2614850Y1457433D01*
X2616940Y1456036D01*
X2619943Y1454792D01*
X2621756Y1454432D01*
Y1470658D01*
Y1486885D01*
X2619943Y1486524D01*
X2616940Y1485280D01*
X2614238Y1483474D01*
X2612056Y1481293D01*
X2609874Y1483474D01*
X2607172Y1485280D01*
X2604169Y1486524D01*
X2600981Y1487158D01*
X2597731D01*
X2594543Y1486524D01*
X2591541Y1485280D01*
X2588838Y1483474D01*
X2586656Y1481293D01*
X2584474Y1483474D01*
X2581772Y1485280D01*
X2578769Y1486524D01*
X2575581Y1487158D01*
X2572331D01*
X2569143Y1486524D01*
X2566140Y1485280D01*
X2563438Y1483474D01*
X2561256Y1481293D01*
X2559074Y1483474D01*
X2556372Y1485280D01*
X2553369Y1486524D01*
X2550181Y1487158D01*
X2546931D01*
X2543743Y1486524D01*
X2540740Y1485280D01*
X2540288Y1484978D01*
X2538544Y1484144D01*
X2536488Y1484366D01*
X2535397Y1484608D01*
X2533943Y1485288D01*
X2532360Y1486282D01*
X2532345Y1486347D01*
X2532296Y1486684D01*
X2532267Y1487310D01*
X2532234Y1487443D01*
Y1495013D01*
X2532265Y1495137D01*
X2532276Y1495338D01*
X2532478Y1495349D01*
X2532601Y1495381D01*
X2631670D01*
X2632978Y1491285D01*
X2630739Y1488525D01*
X2628575Y1486722D01*
X2627756Y1486885D01*
Y1470658D01*
Y1454432D01*
X2629178Y1454715D01*
X2629748Y1454702D01*
X2632518Y1453302D01*
X2635179Y1450803D01*
Y1426958D01*
Y1361544D01*
Y1353981D01*
X2635154Y1353892D01*
X2629309Y1353536D01*
X2435856D01*
X2433507Y1353226D01*
X2431317Y1352320D01*
X2429437Y1350877D01*
X2414437Y1335877D01*
X2412995Y1333997D01*
X2412088Y1331808D01*
X2411779Y1329458D01*
Y1276477D01*
X2373837Y1238536D01*
X2052953D01*
X2052786Y1238574D01*
X2052656Y1238577D01*
Y1243458D01*
X2024656D01*
Y1243458D01*
X2018660Y1242504D01*
X2016256Y1243148D01*
Y1229458D01*
X2010256D01*
Y1243148D01*
X2007852Y1242504D01*
X2004660Y1240661D01*
X2004547Y1240548D01*
X2000556Y1238735D01*
X1996565Y1240548D01*
X1996452Y1240661D01*
X1993260Y1242504D01*
X1989699Y1243458D01*
X1986013D01*
X1982452Y1242504D01*
X1979260Y1240661D01*
X1979147Y1240548D01*
X1975156Y1238735D01*
X1971165Y1240548D01*
X1971052Y1240661D01*
X1967860Y1242504D01*
X1964299Y1243458D01*
X1960613D01*
X1960444Y1243413D01*
X1954444Y1247489D01*
Y1502208D01*
X1964616Y1512381D01*
X1983771D01*
X1983904Y1512348D01*
X1984530Y1512318D01*
X1984868Y1512269D01*
X1985220Y1512184D01*
X1985600Y1512055D01*
X1986016Y1511872D01*
X1986472Y1511625D01*
X1986970Y1511304D01*
X1987508Y1510900D01*
X1988083Y1510407D01*
X1988809Y1509707D01*
X1989268Y1509411D01*
X1990038Y1508642D01*
X1992740Y1506836D01*
X1995743Y1505592D01*
X1998931Y1504958D01*
X2002181D01*
X2005369Y1505592D01*
X2008372Y1506836D01*
X2011074Y1508642D01*
X2013256Y1510824D01*
X2015438Y1508642D01*
X2018140Y1506836D01*
X2021143Y1505592D01*
X2022956Y1505232D01*
Y1521458D01*
Y1537685D01*
X2021143Y1537324D01*
X2018140Y1536080D01*
X2015438Y1534274D01*
X2013256Y1532093D01*
X2011074Y1534274D01*
X2008372Y1536080D01*
X2005369Y1537324D01*
X2002181Y1537958D01*
X1998931D01*
X1998618Y1537896D01*
X1993242Y1541486D01*
X1992618Y1542524D01*
Y1608920D01*
X1997256Y1612208D01*
X2024256D01*
Y1612208D01*
X2027356Y1612208D01*
X2027356Y1612208D01*
X2054356D01*
Y1615589D01*
X2054486Y1615593D01*
X2054653Y1615630D01*
X2066846D01*
X2093078Y1589398D01*
D02*
G37*
G36*
X2333800Y1536904D02*
X2333930Y1535994D01*
X2334148Y1535091D01*
X2334452Y1534194D01*
X2334844Y1533304D01*
X2335322Y1532422D01*
X2335888Y1531545D01*
X2336540Y1530676D01*
X2337280Y1529813D01*
X2338106Y1528957D01*
X2323406D01*
X2324233Y1529813D01*
X2324972Y1530676D01*
X2325625Y1531545D01*
X2326190Y1532422D01*
X2326669Y1533304D01*
X2327060Y1534194D01*
X2327365Y1535091D01*
X2327582Y1535994D01*
X2327713Y1536904D01*
X2327756Y1537820D01*
X2333756D01*
X2333800Y1536904D01*
D02*
G37*
G36*
X2308400D02*
X2308530Y1535994D01*
X2308748Y1535091D01*
X2309052Y1534194D01*
X2309444Y1533304D01*
X2309922Y1532422D01*
X2310488Y1531545D01*
X2311140Y1530676D01*
X2311880Y1529813D01*
X2312706Y1528957D01*
X2298006D01*
X2298833Y1529813D01*
X2299572Y1530676D01*
X2300225Y1531545D01*
X2300790Y1532422D01*
X2301269Y1533304D01*
X2301660Y1534194D01*
X2301965Y1535091D01*
X2302182Y1535994D01*
X2302313Y1536904D01*
X2302356Y1537820D01*
X2308356D01*
X2308400Y1536904D01*
D02*
G37*
G36*
X2257600D02*
X2257730Y1535994D01*
X2257948Y1535091D01*
X2258252Y1534194D01*
X2258644Y1533304D01*
X2259122Y1532422D01*
X2259688Y1531545D01*
X2260340Y1530676D01*
X2261080Y1529813D01*
X2261906Y1528957D01*
X2247206D01*
X2248033Y1529813D01*
X2248772Y1530676D01*
X2249425Y1531545D01*
X2249990Y1532422D01*
X2250469Y1533304D01*
X2250860Y1534194D01*
X2251165Y1535091D01*
X2251382Y1535994D01*
X2251513Y1536904D01*
X2251556Y1537820D01*
X2257556D01*
X2257600Y1536904D01*
D02*
G37*
G36*
X2206800D02*
X2206930Y1535994D01*
X2207148Y1535091D01*
X2207452Y1534194D01*
X2207844Y1533304D01*
X2208322Y1532422D01*
X2208888Y1531545D01*
X2209540Y1530676D01*
X2210280Y1529813D01*
X2211106Y1528957D01*
X2196406D01*
X2197233Y1529813D01*
X2197972Y1530676D01*
X2198625Y1531545D01*
X2199190Y1532422D01*
X2199669Y1533304D01*
X2200060Y1534194D01*
X2200365Y1535091D01*
X2200582Y1535994D01*
X2200713Y1536904D01*
X2200756Y1537820D01*
X2206756D01*
X2206800Y1536904D01*
D02*
G37*
G36*
X2181400D02*
X2181530Y1535994D01*
X2181748Y1535091D01*
X2182052Y1534194D01*
X2182444Y1533304D01*
X2182922Y1532422D01*
X2183488Y1531545D01*
X2184140Y1530676D01*
X2184880Y1529813D01*
X2185706Y1528957D01*
X2171006D01*
X2171833Y1529813D01*
X2172572Y1530676D01*
X2173225Y1531545D01*
X2173790Y1532422D01*
X2174269Y1533304D01*
X2174660Y1534194D01*
X2174965Y1535091D01*
X2175182Y1535994D01*
X2175313Y1536904D01*
X2175356Y1537820D01*
X2181356D01*
X2181400Y1536904D01*
D02*
G37*
G36*
X2156000D02*
X2156130Y1535994D01*
X2156348Y1535091D01*
X2156652Y1534194D01*
X2157044Y1533304D01*
X2157522Y1532422D01*
X2158088Y1531545D01*
X2158740Y1530676D01*
X2159480Y1529813D01*
X2160306Y1528957D01*
X2145606D01*
X2146433Y1529813D01*
X2147172Y1530676D01*
X2147825Y1531545D01*
X2148390Y1532422D01*
X2148869Y1533304D01*
X2149260Y1534194D01*
X2149565Y1535091D01*
X2149782Y1535994D01*
X2149913Y1536904D01*
X2149956Y1537820D01*
X2155956D01*
X2156000Y1536904D01*
D02*
G37*
G36*
X2130600D02*
X2130730Y1535994D01*
X2130948Y1535091D01*
X2131252Y1534194D01*
X2131644Y1533304D01*
X2132122Y1532422D01*
X2132688Y1531545D01*
X2133340Y1530676D01*
X2134080Y1529813D01*
X2134906Y1528957D01*
X2120206D01*
X2121033Y1529813D01*
X2121772Y1530676D01*
X2122425Y1531545D01*
X2122990Y1532422D01*
X2123469Y1533304D01*
X2123860Y1534194D01*
X2124165Y1535091D01*
X2124382Y1535994D01*
X2124513Y1536904D01*
X2124556Y1537820D01*
X2130556D01*
X2130600Y1536904D01*
D02*
G37*
G36*
X2105200D02*
X2105330Y1535994D01*
X2105548Y1535091D01*
X2105852Y1534194D01*
X2106244Y1533304D01*
X2106722Y1532422D01*
X2107288Y1531545D01*
X2107940Y1530676D01*
X2108680Y1529813D01*
X2109506Y1528957D01*
X2094806D01*
X2095633Y1529813D01*
X2096372Y1530676D01*
X2097025Y1531545D01*
X2097590Y1532422D01*
X2098069Y1533304D01*
X2098460Y1534194D01*
X2098765Y1535091D01*
X2098982Y1535994D01*
X2099113Y1536904D01*
X2099156Y1537820D01*
X2105156D01*
X2105200Y1536904D01*
D02*
G37*
G36*
X2283856Y1537507D02*
X2283897Y1536610D01*
X2284019Y1535707D01*
X2284222Y1534799D01*
X2284507Y1533886D01*
X2284872Y1532968D01*
X2285320Y1532045D01*
X2285848Y1531116D01*
X2286458Y1530182D01*
X2287149Y1529243D01*
X2287922Y1528299D01*
X2273276Y1529559D01*
X2274146Y1530324D01*
X2274925Y1531107D01*
X2275612Y1531909D01*
X2276207Y1532730D01*
X2276711Y1533569D01*
X2277123Y1534427D01*
X2277444Y1535304D01*
X2277673Y1536199D01*
X2277810Y1537113D01*
X2277856Y1538046D01*
X2283856Y1537507D01*
D02*
G37*
G36*
X2233856Y1537148D02*
X2233894Y1536271D01*
X2234007Y1535379D01*
X2234195Y1534470D01*
X2234459Y1533546D01*
X2234798Y1532606D01*
X2235212Y1531650D01*
X2235702Y1530678D01*
X2236267Y1529691D01*
X2237623Y1527668D01*
X2223117Y1530048D01*
X2224017Y1530729D01*
X2224823Y1531439D01*
X2225534Y1532179D01*
X2226150Y1532948D01*
X2226671Y1533746D01*
X2227098Y1534574D01*
X2227430Y1535431D01*
X2227667Y1536317D01*
X2227809Y1537232D01*
X2227856Y1538177D01*
X2233856Y1537148D01*
D02*
G37*
G36*
X2700709Y1528900D02*
X2701385Y1528378D01*
X2702102Y1527919D01*
X2702860Y1527522D01*
X2703659Y1527189D01*
X2704498Y1526917D01*
X2705378Y1526709D01*
X2706298Y1526562D01*
X2707259Y1526479D01*
X2708261Y1526458D01*
X2698857Y1517053D01*
X2698835Y1518055D01*
X2698752Y1519016D01*
X2698606Y1519937D01*
X2698397Y1520816D01*
X2698126Y1521655D01*
X2697792Y1522454D01*
X2697395Y1523212D01*
X2696936Y1523929D01*
X2696415Y1524605D01*
X2695830Y1525241D01*
X2700073Y1529484D01*
X2700709Y1528900D01*
D02*
G37*
G36*
X1986601Y1529318D02*
X1986781Y1528298D01*
X1987081Y1527398D01*
X1987501Y1526618D01*
X1988041Y1525958D01*
X1988602Y1525498D01*
X1988710Y1525546D01*
X1989593Y1526024D01*
X1990469Y1526590D01*
X1991339Y1527242D01*
X1992202Y1527982D01*
X1993058Y1528808D01*
Y1514108D01*
X1992202Y1514935D01*
X1991339Y1515674D01*
X1990469Y1516327D01*
X1989593Y1516892D01*
X1988710Y1517371D01*
X1987820Y1517762D01*
X1986924Y1518067D01*
X1986020Y1518284D01*
X1985110Y1518415D01*
X1984194Y1518458D01*
Y1518894D01*
X1983541Y1518458D01*
X1974541Y1524458D01*
X1975681Y1524518D01*
X1976701Y1524698D01*
X1977601Y1524998D01*
X1978381Y1525418D01*
X1979041Y1525958D01*
X1979581Y1526618D01*
X1980001Y1527398D01*
X1980301Y1528298D01*
X1980481Y1529318D01*
X1980541Y1530458D01*
X1986541D01*
X1986601Y1529318D01*
D02*
G37*
G36*
X2714313Y1509451D02*
X2713692Y1508712D01*
X2713145Y1507957D01*
X2712670Y1507188D01*
X2712269Y1506402D01*
X2711940Y1505602D01*
X2711685Y1504786D01*
X2711502Y1503954D01*
X2711393Y1503107D01*
X2711356Y1502244D01*
X2705356D01*
X2705320Y1503107D01*
X2705210Y1503954D01*
X2705027Y1504786D01*
X2704772Y1505602D01*
X2704444Y1506402D01*
X2704042Y1507188D01*
X2703568Y1507957D01*
X2703020Y1508712D01*
X2702400Y1509451D01*
X2701706Y1510174D01*
X2715006D01*
X2714313Y1509451D01*
D02*
G37*
G36*
X2532156Y1501458D02*
X2531016Y1501398D01*
X2529996Y1501218D01*
X2529096Y1500918D01*
X2528316Y1500498D01*
X2527656Y1499958D01*
X2527116Y1499298D01*
X2526696Y1498518D01*
X2526396Y1497618D01*
X2526216Y1496598D01*
X2526156Y1495458D01*
X2520156D01*
X2520096Y1496598D01*
X2519916Y1497618D01*
X2519616Y1498518D01*
X2519196Y1499298D01*
X2518656Y1499958D01*
X2517996Y1500498D01*
X2517216Y1500918D01*
X2516316Y1501218D01*
X2515296Y1501398D01*
X2514156Y1501458D01*
X2523156Y1507458D01*
X2532156Y1501458D01*
D02*
G37*
G36*
X2711356Y1481958D02*
X2705356Y1472958D01*
X2705296Y1474098D01*
X2705116Y1475118D01*
X2704816Y1476018D01*
X2704396Y1476798D01*
X2703856Y1477458D01*
X2703201Y1477994D01*
X2703010Y1477878D01*
X2702588Y1477488D01*
X2702286Y1477038D01*
X2702105Y1476528D01*
X2702045Y1475958D01*
Y1478542D01*
X2701516Y1478718D01*
X2700496Y1478898D01*
X2699356Y1478958D01*
Y1484958D01*
X2700496Y1485018D01*
X2701516Y1485198D01*
X2702045Y1485374D01*
Y1487958D01*
X2702105Y1487388D01*
X2702286Y1486878D01*
X2702588Y1486428D01*
X2703010Y1486038D01*
X2703201Y1485922D01*
X2703856Y1486458D01*
X2704396Y1487118D01*
X2704816Y1487898D01*
X2705116Y1488798D01*
X2705296Y1489818D01*
X2705356Y1490958D01*
X2711356Y1481958D01*
D02*
G37*
G36*
X2526200Y1486104D02*
X2526330Y1485194D01*
X2526548Y1484291D01*
X2526852Y1483394D01*
X2527244Y1482504D01*
X2527722Y1481622D01*
X2528288Y1480745D01*
X2528940Y1479876D01*
X2529680Y1479013D01*
X2530506Y1478157D01*
X2515806D01*
X2516633Y1479013D01*
X2517372Y1479876D01*
X2518025Y1480745D01*
X2518590Y1481622D01*
X2519069Y1482504D01*
X2519460Y1483394D01*
X2519765Y1484291D01*
X2519982Y1485194D01*
X2520113Y1486104D01*
X2520156Y1487020D01*
X2526156D01*
X2526200Y1486104D01*
D02*
G37*
G36*
X2681536Y1474459D02*
X2681026Y1474278D01*
X2680576Y1473976D01*
X2680186Y1473554D01*
X2679856Y1473011D01*
X2679586Y1472348D01*
X2679376Y1471564D01*
X2679226Y1470660D01*
X2679136Y1469634D01*
X2679106Y1468489D01*
X2673106D01*
X2673076Y1469634D01*
X2672986Y1470660D01*
X2672836Y1471564D01*
X2672626Y1472348D01*
X2672356Y1473011D01*
X2672026Y1473554D01*
X2671636Y1473976D01*
X2671186Y1474278D01*
X2670676Y1474459D01*
X2670106Y1474519D01*
X2682106D01*
X2681536Y1474459D01*
D02*
G37*
G36*
X2711393Y1465809D02*
X2711502Y1464962D01*
X2711685Y1464131D01*
X2711940Y1463314D01*
X2712269Y1462514D01*
X2712670Y1461729D01*
X2713145Y1460959D01*
X2713692Y1460204D01*
X2714313Y1459466D01*
X2715006Y1458742D01*
X2701706D01*
X2702400Y1459466D01*
X2703020Y1460204D01*
X2703568Y1460959D01*
X2704042Y1461729D01*
X2704444Y1462514D01*
X2704772Y1463314D01*
X2705027Y1464131D01*
X2705210Y1464962D01*
X2705320Y1465809D01*
X2705356Y1466672D01*
X2711356D01*
X2711393Y1465809D01*
D02*
G37*
G36*
X2605312Y1461914D02*
X2604692Y1461254D01*
X2604145Y1460551D01*
X2603670Y1459807D01*
X2603269Y1459020D01*
X2602940Y1458192D01*
X2602685Y1457321D01*
X2602502Y1456409D01*
X2602393Y1455455D01*
X2602356Y1454458D01*
X2596356D01*
X2596320Y1455455D01*
X2596210Y1456409D01*
X2596028Y1457321D01*
X2595772Y1458192D01*
X2595444Y1459020D01*
X2595042Y1459807D01*
X2594568Y1460551D01*
X2594020Y1461254D01*
X2593400Y1461914D01*
X2592706Y1462532D01*
X2606006D01*
X2605312Y1461914D01*
D02*
G37*
G36*
X2579912D02*
X2579292Y1461254D01*
X2578745Y1460551D01*
X2578270Y1459807D01*
X2577869Y1459020D01*
X2577540Y1458192D01*
X2577285Y1457321D01*
X2577102Y1456409D01*
X2576992Y1455455D01*
X2576956Y1454458D01*
X2570956D01*
X2570919Y1455455D01*
X2570810Y1456409D01*
X2570628Y1457321D01*
X2570372Y1458192D01*
X2570044Y1459020D01*
X2569642Y1459807D01*
X2569167Y1460551D01*
X2568620Y1461254D01*
X2568000Y1461914D01*
X2567306Y1462532D01*
X2580606D01*
X2579912Y1461914D01*
D02*
G37*
G36*
X2554512D02*
X2553892Y1461254D01*
X2553345Y1460551D01*
X2552870Y1459807D01*
X2552469Y1459020D01*
X2552140Y1458192D01*
X2551885Y1457321D01*
X2551702Y1456409D01*
X2551593Y1455455D01*
X2551556Y1454458D01*
X2545556D01*
X2545520Y1455455D01*
X2545410Y1456409D01*
X2545228Y1457321D01*
X2544972Y1458192D01*
X2544644Y1459020D01*
X2544242Y1459807D01*
X2543768Y1460551D01*
X2543220Y1461254D01*
X2542600Y1461914D01*
X2541906Y1462532D01*
X2555206D01*
X2554512Y1461914D01*
D02*
G37*
G36*
X2503712D02*
X2503092Y1461254D01*
X2502545Y1460551D01*
X2502070Y1459807D01*
X2501669Y1459020D01*
X2501340Y1458192D01*
X2501085Y1457321D01*
X2500902Y1456409D01*
X2500793Y1455455D01*
X2500756Y1454458D01*
X2494756D01*
X2494720Y1455455D01*
X2494610Y1456409D01*
X2494428Y1457321D01*
X2494172Y1458192D01*
X2493844Y1459020D01*
X2493442Y1459807D01*
X2492968Y1460551D01*
X2492420Y1461254D01*
X2491800Y1461914D01*
X2491106Y1462532D01*
X2504406D01*
X2503712Y1461914D01*
D02*
G37*
G36*
X2478313D02*
X2477692Y1461254D01*
X2477145Y1460551D01*
X2476670Y1459807D01*
X2476269Y1459020D01*
X2475940Y1458192D01*
X2475685Y1457321D01*
X2475502Y1456409D01*
X2475393Y1455455D01*
X2475356Y1454458D01*
X2469356D01*
X2469320Y1455455D01*
X2469210Y1456409D01*
X2469028Y1457321D01*
X2468772Y1458192D01*
X2468444Y1459020D01*
X2468042Y1459807D01*
X2467568Y1460551D01*
X2467020Y1461254D01*
X2466400Y1461914D01*
X2465706Y1462532D01*
X2479006D01*
X2478313Y1461914D01*
D02*
G37*
G36*
X2452912D02*
X2452292Y1461254D01*
X2451745Y1460551D01*
X2451270Y1459807D01*
X2450869Y1459020D01*
X2450540Y1458192D01*
X2450285Y1457321D01*
X2450102Y1456409D01*
X2449993Y1455455D01*
X2449956Y1454458D01*
X2443956D01*
X2443920Y1455455D01*
X2443810Y1456409D01*
X2443628Y1457321D01*
X2443372Y1458192D01*
X2443044Y1459020D01*
X2442642Y1459807D01*
X2442168Y1460551D01*
X2441620Y1461254D01*
X2441000Y1461914D01*
X2440306Y1462532D01*
X2453606D01*
X2452912Y1461914D01*
D02*
G37*
G36*
X2647316Y1459818D02*
X2647496Y1458798D01*
X2647796Y1457898D01*
X2648216Y1457118D01*
X2648756Y1456458D01*
X2649416Y1455918D01*
X2650196Y1455498D01*
X2650971Y1455240D01*
X2651183Y1455287D01*
X2652000Y1455542D01*
X2652801Y1455871D01*
X2653586Y1456272D01*
X2654355Y1456747D01*
X2655110Y1457294D01*
X2655848Y1457915D01*
X2656572Y1458608D01*
Y1445308D01*
X2655848Y1446002D01*
X2655110Y1446622D01*
X2654355Y1447170D01*
X2653586Y1447644D01*
X2652801Y1448046D01*
X2652000Y1448374D01*
X2651183Y1448630D01*
X2650971Y1448676D01*
X2650196Y1448418D01*
X2649416Y1447998D01*
X2648756Y1447458D01*
X2648216Y1446798D01*
X2647796Y1446018D01*
X2647496Y1445118D01*
X2647316Y1444098D01*
X2647256Y1442958D01*
X2641256Y1451958D01*
X2647256Y1460958D01*
X2647316Y1459818D01*
D02*
G37*
G36*
X2733856Y1426958D02*
X2727856Y1417958D01*
X2727796Y1419098D01*
X2727616Y1420118D01*
X2727316Y1421018D01*
X2726896Y1421798D01*
X2726356Y1422458D01*
X2725696Y1422998D01*
X2724916Y1423418D01*
X2724016Y1423718D01*
X2722996Y1423898D01*
X2722397Y1423930D01*
X2722207Y1423922D01*
X2721360Y1423812D01*
X2720529Y1423630D01*
X2719713Y1423374D01*
X2718912Y1423046D01*
X2718127Y1422644D01*
X2717357Y1422170D01*
X2716602Y1421622D01*
X2715864Y1421002D01*
X2715140Y1420308D01*
Y1433608D01*
X2715864Y1432915D01*
X2716602Y1432294D01*
X2717357Y1431747D01*
X2718127Y1431272D01*
X2718912Y1430871D01*
X2719713Y1430542D01*
X2720529Y1430287D01*
X2721360Y1430104D01*
X2722207Y1429995D01*
X2722397Y1429987D01*
X2722996Y1430018D01*
X2724016Y1430198D01*
X2724916Y1430498D01*
X2725696Y1430918D01*
X2726356Y1431458D01*
X2726896Y1432118D01*
X2727316Y1432898D01*
X2727616Y1433798D01*
X2727796Y1434818D01*
X2727856Y1435958D01*
X2733856Y1426958D01*
D02*
G37*
G36*
X2647316Y1434818D02*
X2647496Y1433798D01*
X2647796Y1432898D01*
X2648216Y1432118D01*
X2648756Y1431458D01*
X2649416Y1430918D01*
X2650196Y1430498D01*
X2650971Y1430240D01*
X2651183Y1430287D01*
X2652000Y1430542D01*
X2652801Y1430871D01*
X2653586Y1431272D01*
X2654355Y1431747D01*
X2655110Y1432294D01*
X2655848Y1432915D01*
X2656572Y1433608D01*
Y1420308D01*
X2655848Y1421002D01*
X2655110Y1421622D01*
X2654355Y1422170D01*
X2653586Y1422644D01*
X2652801Y1423046D01*
X2652000Y1423374D01*
X2651183Y1423630D01*
X2650971Y1423676D01*
X2650196Y1423418D01*
X2649416Y1422998D01*
X2648756Y1422458D01*
X2648216Y1421798D01*
X2647796Y1421018D01*
X2647496Y1420118D01*
X2647316Y1419098D01*
X2647256Y1417958D01*
X2641256Y1426958D01*
X2647256Y1435958D01*
X2647316Y1434818D01*
D02*
G37*
G36*
X2708261Y1417459D02*
X2707259Y1417438D01*
X2706298Y1417354D01*
X2705378Y1417208D01*
X2704498Y1416999D01*
X2703659Y1416728D01*
X2702860Y1416394D01*
X2702102Y1415997D01*
X2701385Y1415538D01*
X2700709Y1415017D01*
X2700073Y1414433D01*
X2695830Y1418675D01*
X2696415Y1419311D01*
X2696936Y1419987D01*
X2697395Y1420704D01*
X2697792Y1421462D01*
X2698126Y1422261D01*
X2698397Y1423100D01*
X2698606Y1423980D01*
X2698752Y1424900D01*
X2698835Y1425861D01*
X2698857Y1426863D01*
X2708261Y1417459D01*
D02*
G37*
G36*
X2698636Y1406782D02*
X2698726Y1405757D01*
X2698876Y1404852D01*
X2699086Y1404068D01*
X2699356Y1403405D01*
X2699686Y1402862D01*
X2700076Y1402440D01*
X2700526Y1402138D01*
X2701036Y1401957D01*
X2701606Y1401897D01*
X2689606D01*
X2690176Y1401957D01*
X2690686Y1402138D01*
X2691136Y1402440D01*
X2691526Y1402862D01*
X2691856Y1403405D01*
X2692126Y1404068D01*
X2692336Y1404852D01*
X2692486Y1405757D01*
X2692576Y1406782D01*
X2692606Y1407928D01*
X2698606D01*
X2698636Y1406782D01*
D02*
G37*
G36*
X2716487Y1366998D02*
X2717006Y1366483D01*
X2717574Y1366029D01*
X2718192Y1365635D01*
X2718860Y1365302D01*
X2719577Y1365029D01*
X2720344Y1364817D01*
X2721160Y1364665D01*
X2722026Y1364574D01*
X2722942Y1364544D01*
X2722921Y1358544D01*
X2721961Y1358516D01*
X2721049Y1358430D01*
X2720185Y1358288D01*
X2719370Y1358089D01*
X2718604Y1357832D01*
X2717886Y1357519D01*
X2717217Y1357149D01*
X2716596Y1356722D01*
X2716024Y1356238D01*
X2715500Y1355697D01*
X2716018Y1367574D01*
X2716487Y1366998D01*
D02*
G37*
G36*
X2656572Y1355308D02*
X2655848Y1356002D01*
X2655110Y1356622D01*
X2654355Y1357170D01*
X2653586Y1357644D01*
X2652801Y1358046D01*
X2652000Y1358374D01*
X2651183Y1358630D01*
X2650352Y1358812D01*
X2649505Y1358922D01*
X2648642Y1358958D01*
Y1364958D01*
X2649505Y1364995D01*
X2650352Y1365104D01*
X2651183Y1365287D01*
X2652000Y1365542D01*
X2652801Y1365871D01*
X2653586Y1366272D01*
X2654355Y1366747D01*
X2655110Y1367294D01*
X2655848Y1367915D01*
X2656572Y1368608D01*
Y1355308D01*
D02*
G37*
G36*
X2481356Y1341458D02*
X2480216Y1341398D01*
X2479196Y1341218D01*
X2478296Y1340918D01*
X2477516Y1340498D01*
X2476856Y1339958D01*
X2476316Y1339298D01*
X2475896Y1338518D01*
X2475596Y1337618D01*
X2475416Y1336598D01*
X2475356Y1335458D01*
X2469356D01*
X2469296Y1336598D01*
X2469116Y1337618D01*
X2468816Y1338518D01*
X2468396Y1339298D01*
X2467856Y1339958D01*
X2467196Y1340498D01*
X2466416Y1340918D01*
X2465516Y1341218D01*
X2464496Y1341398D01*
X2463356Y1341458D01*
X2472356Y1347458D01*
X2481356Y1341458D01*
D02*
G37*
G36*
X2715864Y1342915D02*
X2716602Y1342294D01*
X2717357Y1341747D01*
X2718127Y1341272D01*
X2718912Y1340871D01*
X2719713Y1340542D01*
X2720529Y1340287D01*
X2721360Y1340104D01*
X2722207Y1339995D01*
X2723070Y1339958D01*
Y1333958D01*
X2722207Y1333922D01*
X2721360Y1333812D01*
X2720529Y1333630D01*
X2719713Y1333374D01*
X2718912Y1333046D01*
X2718127Y1332644D01*
X2717357Y1332170D01*
X2716602Y1331622D01*
X2715864Y1331002D01*
X2715140Y1330308D01*
Y1343608D01*
X2715864Y1342915D01*
D02*
G37*
G36*
X2647256Y1344458D02*
X2647316Y1343603D01*
X2647496Y1342838D01*
X2647796Y1342163D01*
X2648216Y1341578D01*
X2648756Y1341083D01*
X2649416Y1340678D01*
X2650196Y1340363D01*
X2650821Y1340207D01*
X2651183Y1340287D01*
X2652000Y1340542D01*
X2652801Y1340871D01*
X2653586Y1341272D01*
X2654355Y1341747D01*
X2655110Y1342294D01*
X2655848Y1342915D01*
X2656572Y1343608D01*
Y1330308D01*
X2655848Y1331002D01*
X2655110Y1331622D01*
X2654355Y1332170D01*
X2653586Y1332644D01*
X2652801Y1333046D01*
X2652000Y1333374D01*
X2651183Y1333630D01*
X2650971Y1333676D01*
X2650196Y1333418D01*
X2649416Y1332998D01*
X2648756Y1332458D01*
X2648216Y1331798D01*
X2647796Y1331018D01*
X2647496Y1330118D01*
X2647316Y1329098D01*
X2647256Y1327958D01*
X2641256Y1336958D01*
X2641196Y1337813D01*
X2641016Y1338578D01*
X2640716Y1339253D01*
X2640296Y1339838D01*
X2639756Y1340333D01*
X2639096Y1340738D01*
X2638316Y1341053D01*
X2637416Y1341278D01*
X2636396Y1341413D01*
X2635256Y1341458D01*
Y1347458D01*
X2636396Y1347518D01*
X2637416Y1347698D01*
X2638316Y1347998D01*
X2639096Y1348418D01*
X2639756Y1348958D01*
X2640296Y1349618D01*
X2640716Y1350398D01*
X2641016Y1351298D01*
X2641196Y1352318D01*
X2641256Y1353458D01*
X2647256Y1344458D01*
D02*
G37*
G36*
X2748856Y1336958D02*
X2742856Y1327958D01*
X2742796Y1329098D01*
X2742616Y1330118D01*
X2742316Y1331018D01*
X2741896Y1331798D01*
X2741356Y1332458D01*
X2740696Y1332998D01*
X2739916Y1333418D01*
X2739016Y1333718D01*
X2737996Y1333898D01*
X2736856Y1333958D01*
Y1339958D01*
X2737996Y1340018D01*
X2739016Y1340198D01*
X2739916Y1340498D01*
X2740696Y1340918D01*
X2741356Y1341458D01*
X2741896Y1342118D01*
X2742316Y1342898D01*
X2742616Y1343798D01*
X2742796Y1344818D01*
X2742856Y1345958D01*
X2748856Y1336958D01*
D02*
G37*
G36*
X2475400Y1333704D02*
X2475530Y1332794D01*
X2475748Y1331891D01*
X2476052Y1330994D01*
X2476444Y1330105D01*
X2476922Y1329221D01*
X2477488Y1328345D01*
X2478140Y1327476D01*
X2478880Y1326613D01*
X2479706Y1325757D01*
X2465006D01*
X2465833Y1326613D01*
X2466572Y1327476D01*
X2467225Y1328345D01*
X2467790Y1329221D01*
X2468269Y1330105D01*
X2468660Y1330994D01*
X2468965Y1331891D01*
X2469182Y1332794D01*
X2469313Y1333704D01*
X2469356Y1334620D01*
X2475356D01*
X2475400Y1333704D01*
D02*
G37*
G36*
X2708261Y1327459D02*
X2707259Y1327438D01*
X2706298Y1327354D01*
X2705378Y1327208D01*
X2704498Y1326999D01*
X2703659Y1326728D01*
X2702860Y1326394D01*
X2702102Y1325997D01*
X2701385Y1325538D01*
X2700709Y1325017D01*
X2700073Y1324433D01*
X2695830Y1328675D01*
X2696415Y1329311D01*
X2696936Y1329987D01*
X2697395Y1330704D01*
X2697792Y1331462D01*
X2698126Y1332261D01*
X2698397Y1333100D01*
X2698606Y1333980D01*
X2698752Y1334900D01*
X2698835Y1335861D01*
X2698857Y1336863D01*
X2708261Y1327459D01*
D02*
G37*
G36*
X2698636Y1316782D02*
X2698726Y1315757D01*
X2698876Y1314852D01*
X2699086Y1314068D01*
X2699356Y1313405D01*
X2699686Y1312862D01*
X2700076Y1312440D01*
X2700526Y1312138D01*
X2701036Y1311957D01*
X2701606Y1311897D01*
X2689606D01*
X2690176Y1311957D01*
X2690686Y1312138D01*
X2691136Y1312440D01*
X2691526Y1312862D01*
X2691856Y1313405D01*
X2692126Y1314068D01*
X2692336Y1314852D01*
X2692486Y1315757D01*
X2692576Y1316782D01*
X2692606Y1317928D01*
X2698606D01*
X2698636Y1316782D01*
D02*
G37*
G36*
X2359200Y1282904D02*
X2359330Y1281994D01*
X2359548Y1281091D01*
X2359852Y1280194D01*
X2360244Y1279305D01*
X2360722Y1278421D01*
X2361288Y1277545D01*
X2361940Y1276676D01*
X2362680Y1275813D01*
X2363506Y1274957D01*
X2348806D01*
X2349633Y1275813D01*
X2350372Y1276676D01*
X2351025Y1277545D01*
X2351590Y1278421D01*
X2352069Y1279305D01*
X2352460Y1280194D01*
X2352765Y1281091D01*
X2352982Y1281994D01*
X2353113Y1282904D01*
X2353156Y1283820D01*
X2359156D01*
X2359200Y1282904D01*
D02*
G37*
G36*
X2232200D02*
X2232330Y1281994D01*
X2232548Y1281091D01*
X2232852Y1280194D01*
X2233244Y1279305D01*
X2233722Y1278421D01*
X2234288Y1277545D01*
X2234940Y1276676D01*
X2235680Y1275813D01*
X2236506Y1274957D01*
X2221806D01*
X2222633Y1275813D01*
X2223372Y1276676D01*
X2224025Y1277545D01*
X2224590Y1278421D01*
X2225069Y1279305D01*
X2225460Y1280194D01*
X2225765Y1281091D01*
X2225982Y1281994D01*
X2226113Y1282904D01*
X2226156Y1283820D01*
X2232156D01*
X2232200Y1282904D01*
D02*
G37*
G36*
X2156000D02*
X2156130Y1281994D01*
X2156348Y1281091D01*
X2156652Y1280194D01*
X2157044Y1279305D01*
X2157522Y1278421D01*
X2158088Y1277545D01*
X2158740Y1276676D01*
X2159480Y1275813D01*
X2160306Y1274957D01*
X2145606D01*
X2146433Y1275813D01*
X2147172Y1276676D01*
X2147825Y1277545D01*
X2148390Y1278421D01*
X2148869Y1279305D01*
X2149260Y1280194D01*
X2149565Y1281091D01*
X2149782Y1281994D01*
X2149913Y1282904D01*
X2149956Y1283820D01*
X2155956D01*
X2156000Y1282904D01*
D02*
G37*
G36*
X2130600D02*
X2130730Y1281994D01*
X2130948Y1281091D01*
X2131252Y1280194D01*
X2131644Y1279305D01*
X2132122Y1278421D01*
X2132688Y1277545D01*
X2133340Y1276676D01*
X2134080Y1275813D01*
X2134906Y1274957D01*
X2120206D01*
X2121033Y1275813D01*
X2121772Y1276676D01*
X2122425Y1277545D01*
X2122990Y1278421D01*
X2123469Y1279305D01*
X2123860Y1280194D01*
X2124165Y1281091D01*
X2124382Y1281994D01*
X2124513Y1282904D01*
X2124556Y1283820D01*
X2130556D01*
X2130600Y1282904D01*
D02*
G37*
G36*
X2105200D02*
X2105330Y1281994D01*
X2105548Y1281091D01*
X2105852Y1280194D01*
X2106244Y1279305D01*
X2106722Y1278421D01*
X2107288Y1277545D01*
X2107940Y1276676D01*
X2108680Y1275813D01*
X2109506Y1274957D01*
X2094806D01*
X2095633Y1275813D01*
X2096372Y1276676D01*
X2097025Y1277545D01*
X2097590Y1278421D01*
X2098069Y1279305D01*
X2098460Y1280194D01*
X2098765Y1281091D01*
X2098982Y1281994D01*
X2099113Y1282904D01*
X2099156Y1283820D01*
X2105156D01*
X2105200Y1282904D01*
D02*
G37*
G36*
X2205277Y1283212D02*
X2205418Y1282296D01*
X2205653Y1281408D01*
X2205983Y1280547D01*
X2206407Y1279712D01*
X2206924Y1278905D01*
X2207537Y1278125D01*
X2208243Y1277371D01*
X2209043Y1276645D01*
X2209938Y1275946D01*
X2195394Y1273808D01*
X2196123Y1274812D01*
X2197350Y1276778D01*
X2197849Y1277740D01*
X2198271Y1278690D01*
X2198616Y1279625D01*
X2198884Y1280547D01*
X2199076Y1281456D01*
X2199191Y1282351D01*
X2199229Y1283232D01*
X2205229Y1284154D01*
X2205277Y1283212D01*
D02*
G37*
G36*
X2655709Y1283900D02*
X2656385Y1283378D01*
X2657102Y1282919D01*
X2657860Y1282522D01*
X2658659Y1282189D01*
X2659498Y1281917D01*
X2660378Y1281709D01*
X2661298Y1281562D01*
X2662259Y1281479D01*
X2663261Y1281458D01*
X2653857Y1272053D01*
X2653835Y1273055D01*
X2653752Y1274016D01*
X2653606Y1274937D01*
X2653397Y1275816D01*
X2653126Y1276656D01*
X2652792Y1277454D01*
X2652395Y1278212D01*
X2651936Y1278929D01*
X2651415Y1279605D01*
X2650830Y1280241D01*
X2655073Y1284484D01*
X2655709Y1283900D01*
D02*
G37*
G36*
X1991786Y1280532D02*
X1992522Y1279981D01*
X1993315Y1279496D01*
X1994164Y1279077D01*
X1995070Y1278725D01*
X1996033Y1278439D01*
X1997052Y1278219D01*
X1998128Y1278066D01*
X1999261Y1277979D01*
X2000451Y1277958D01*
X1990057Y1267563D01*
X1990036Y1268753D01*
X1989948Y1269886D01*
X1989795Y1270962D01*
X1989575Y1271982D01*
X1989289Y1272944D01*
X1988937Y1273850D01*
X1988518Y1274700D01*
X1988033Y1275492D01*
X1987482Y1276228D01*
X1986865Y1276907D01*
X1991107Y1281149D01*
X1991786Y1280532D01*
D02*
G37*
G36*
X2715864Y1277915D02*
X2716602Y1277294D01*
X2717357Y1276747D01*
X2718127Y1276272D01*
X2718912Y1275871D01*
X2719713Y1275542D01*
X2720529Y1275287D01*
X2721360Y1275104D01*
X2722207Y1274995D01*
X2723070Y1274958D01*
Y1268958D01*
X2722207Y1268922D01*
X2721360Y1268812D01*
X2720529Y1268630D01*
X2719713Y1268374D01*
X2718912Y1268046D01*
X2718127Y1267644D01*
X2717357Y1267170D01*
X2716602Y1266622D01*
X2715864Y1266002D01*
X2715140Y1265308D01*
Y1278608D01*
X2715864Y1277915D01*
D02*
G37*
G36*
X2046655Y1234888D02*
X2046836Y1234378D01*
X2047138Y1233928D01*
X2047560Y1233538D01*
X2048103Y1233208D01*
X2048766Y1232938D01*
X2049550Y1232728D01*
X2050455Y1232578D01*
X2051480Y1232488D01*
X2052626Y1232458D01*
Y1226458D01*
X2051480Y1226428D01*
X2050455Y1226338D01*
X2049550Y1226188D01*
X2048766Y1225978D01*
X2048103Y1225708D01*
X2047560Y1225378D01*
X2047138Y1224988D01*
X2046836Y1224538D01*
X2046655Y1224028D01*
X2046595Y1223458D01*
Y1235458D01*
X2046655Y1234888D01*
D02*
G37*
G36*
X2599386Y1200496D02*
X2600093Y1190811D01*
X2600417Y1188999D01*
X2600800Y1187429D01*
X2601242Y1186103D01*
X2601743Y1185020D01*
X2602303Y1184180D01*
X2579410D01*
X2579969Y1185020D01*
X2580471Y1186103D01*
X2580912Y1187429D01*
X2581295Y1188999D01*
X2581620Y1190811D01*
X2582091Y1195167D01*
X2582327Y1200496D01*
X2582356Y1203525D01*
X2599356D01*
X2599386Y1200496D01*
D02*
G37*
G36*
X2479386Y1200496D02*
X2480093Y1190811D01*
X2480417Y1188999D01*
X2480800Y1187429D01*
X2481242Y1186103D01*
X2481743Y1185020D01*
X2482303Y1184180D01*
X2459410D01*
X2459970Y1185020D01*
X2460470Y1186103D01*
X2460912Y1187429D01*
X2461295Y1188999D01*
X2461620Y1190811D01*
X2462091Y1195167D01*
X2462327Y1200496D01*
X2462356Y1203525D01*
X2479356D01*
X2479386Y1200496D01*
D02*
G37*
G36*
X2649606Y1183385D02*
X2632106D01*
X2632154Y1183506D01*
X2632196Y1183773D01*
X2632234Y1184184D01*
X2632334Y1187280D01*
X2632356Y1191123D01*
X2649356D01*
X2649606Y1183385D01*
D02*
G37*
G36*
X2529606Y1183385D02*
X2512106D01*
X2512154Y1183506D01*
X2512196Y1183773D01*
X2512234Y1184184D01*
X2512334Y1187280D01*
X2512356Y1191123D01*
X2529356D01*
X2529606Y1183385D01*
D02*
G37*
G36*
X2251757Y1183493D02*
X2252033Y1183381D01*
X2252492Y1183282D01*
X2253136Y1183196D01*
X2254974Y1183064D01*
X2260856Y1182958D01*
Y1165958D01*
X2259110Y1165952D01*
X2252033Y1165535D01*
X2251757Y1165423D01*
X2251665Y1165298D01*
Y1183619D01*
X2251757Y1183493D01*
D02*
G37*
G36*
X2317906Y1189008D02*
X2318416Y1187739D01*
X2319266Y1186618D01*
X2320456Y1185647D01*
X2321986Y1184826D01*
X2323856Y1184153D01*
X2326066Y1183630D01*
X2328579Y1183262D01*
X2334503Y1183695D01*
X2336316Y1184019D01*
X2337885Y1184402D01*
X2339211Y1184844D01*
X2340294Y1185345D01*
X2341134Y1185904D01*
Y1163012D01*
X2340294Y1163572D01*
X2339211Y1164072D01*
X2337885Y1164514D01*
X2336316Y1164898D01*
X2334503Y1165222D01*
X2330147Y1165693D01*
X2329448Y1165724D01*
X2328616Y1165659D01*
X2326066Y1165286D01*
X2323856Y1164763D01*
X2321986Y1164091D01*
X2320456Y1163269D01*
X2319266Y1162298D01*
X2318416Y1161178D01*
X2317906Y1159908D01*
X2317736Y1158489D01*
Y1190428D01*
X2317906Y1189008D01*
D02*
G37*
G36*
X2234007Y1161338D02*
X2233876Y1162216D01*
X2233481Y1163001D01*
X2232823Y1163694D01*
X2231903Y1164295D01*
X2230719Y1164803D01*
X2229273Y1165219D01*
X2227563Y1165542D01*
X2225591Y1165773D01*
X2223355Y1165912D01*
X2220856Y1165958D01*
Y1182958D01*
X2223355Y1183004D01*
X2227563Y1183374D01*
X2229273Y1183697D01*
X2230719Y1184113D01*
X2231903Y1184622D01*
X2232823Y1185222D01*
X2233481Y1185915D01*
X2233876Y1186701D01*
X2234007Y1187579D01*
Y1161338D01*
D02*
G37*
G36*
X2093771Y1167702D02*
X2093264Y1167498D01*
X2092817Y1167157D01*
X2092429Y1166680D01*
X2092101Y1166067D01*
X2091833Y1165317D01*
X2091624Y1164432D01*
X2091476Y1163412D01*
X2091476Y1163407D01*
X2091626Y1162502D01*
X2091836Y1161718D01*
X2092106Y1161055D01*
X2092436Y1160512D01*
X2092826Y1160090D01*
X2093276Y1159788D01*
X2093786Y1159607D01*
X2094356Y1159547D01*
X2082356D01*
X2082926Y1159607D01*
X2083436Y1159788D01*
X2083886Y1160090D01*
X2084276Y1160512D01*
X2084606Y1161055D01*
X2084876Y1161718D01*
X2085086Y1162502D01*
X2085236Y1163407D01*
X2085237Y1163412D01*
X2085088Y1164432D01*
X2084879Y1165317D01*
X2084611Y1166067D01*
X2084283Y1166680D01*
X2083895Y1167157D01*
X2083448Y1167498D01*
X2082941Y1167702D01*
X2082375Y1167770D01*
X2094337D01*
X2093771Y1167702D01*
D02*
G37*
G36*
X2073887Y1145608D02*
X2073827Y1146178D01*
X2073647Y1146688D01*
X2073347Y1147138D01*
X2072927Y1147528D01*
X2072387Y1147858D01*
X2071727Y1148128D01*
X2070947Y1148338D01*
X2070047Y1148488D01*
X2069027Y1148578D01*
X2067887Y1148608D01*
Y1154608D01*
X2069027Y1154638D01*
X2070047Y1154728D01*
X2070947Y1154878D01*
X2071727Y1155088D01*
X2072387Y1155358D01*
X2072927Y1155688D01*
X2073347Y1156078D01*
X2073647Y1156528D01*
X2073827Y1157038D01*
X2073887Y1157608D01*
Y1145608D01*
D02*
G37*
%LPC*%
G36*
X2654256Y1690175D02*
Y1677458D01*
X2666973D01*
X2666641Y1679125D01*
X2665435Y1682037D01*
X2663684Y1684657D01*
X2661455Y1686886D01*
X2658835Y1688637D01*
X2655923Y1689843D01*
X2654256Y1690175D01*
D02*
G37*
G36*
X2403856Y1192724D02*
Y1177458D01*
X2419122D01*
X2418645Y1179854D01*
X2417251Y1183221D01*
X2415226Y1186251D01*
X2412649Y1188828D01*
X2409619Y1190853D01*
X2406252Y1192247D01*
X2403856Y1192724D01*
D02*
G37*
G36*
X2419122Y1171458D02*
X2403856D01*
Y1156192D01*
X2406252Y1156669D01*
X2409619Y1158064D01*
X2412649Y1160088D01*
X2415226Y1162665D01*
X2417251Y1165695D01*
X2418645Y1169062D01*
X2419122Y1171458D01*
D02*
G37*
G36*
X2397856D02*
X2382590D01*
X2383067Y1169062D01*
X2384462Y1165695D01*
X2386486Y1162665D01*
X2389063Y1160088D01*
X2392093Y1158064D01*
X2395460Y1156669D01*
X2397856Y1156192D01*
Y1171458D01*
D02*
G37*
G36*
X2192856Y1156458D02*
X2190500D01*
Y1154208D01*
X2190043Y1154636D01*
X2189554Y1155018D01*
X2189032Y1155356D01*
X2188479Y1155648D01*
X2187893Y1155896D01*
X2187275Y1156098D01*
X2186625Y1156256D01*
X2185943Y1156368D01*
X2185229Y1156436D01*
X2184483Y1156458D01*
X2182684D01*
X2183276Y1154247D01*
X2185054Y1151169D01*
X2187567Y1148655D01*
X2190645Y1146878D01*
X2192856Y1146286D01*
Y1156458D01*
D02*
G37*
G36*
X2014956Y1171458D02*
X1980956D01*
Y1139458D01*
X2014956D01*
Y1171458D01*
D02*
G37*
G36*
X2673106Y1495458D02*
X2663606D01*
Y1484958D01*
X2673106D01*
Y1495458D01*
D02*
G37*
%LPD*%
D10*
X1895856Y1164458D02*
G03*
X1935856Y1124458I40000J0D01*
G01*
Y1714458D02*
G03*
X1895856Y1674458I0J-40000D01*
G01*
X2755856D02*
G03*
X2715856Y1714458I-40000J0D01*
G01*
Y1124458D02*
G03*
X2755856Y1164458I0J40000D01*
G01*
X1935856Y1714458D02*
X2715856Y1714458D01*
X1935856Y1124458D02*
X2715856Y1124458D01*
X1895856Y1674458D02*
X1895856Y1164458D01*
X2755856Y1674458D02*
X2755856Y1164458D01*
D14*
X2624756Y1470658D02*
D03*
X2523156D02*
D03*
X2624756Y1318258D02*
D03*
X2599356D02*
D03*
X2573956D02*
D03*
X2548556D02*
D03*
X2523156D02*
D03*
X2497756D02*
D03*
X2472356D02*
D03*
X2446956D02*
D03*
X2599356Y1470658D02*
D03*
X2497756D02*
D03*
X2472356D02*
D03*
X2446956D02*
D03*
X2548556D02*
D03*
X2573956D02*
D03*
X2000556Y1267458D02*
D03*
X2025956D02*
D03*
X2051356D02*
D03*
X2076756D02*
D03*
X2102156D02*
D03*
X2127556D02*
D03*
X2152956D02*
D03*
X2178356D02*
D03*
X2203756D02*
D03*
X2229156D02*
D03*
X2254556D02*
D03*
X2279956D02*
D03*
X2305356D02*
D03*
X2330756D02*
D03*
X2356156D02*
D03*
X2000556Y1521458D02*
D03*
X2025956D02*
D03*
X2076756D02*
D03*
X2152956D02*
D03*
X2178356D02*
D03*
X2203756D02*
D03*
X2229156D02*
D03*
X2254556D02*
D03*
X2279956D02*
D03*
X2305356D02*
D03*
X2330756D02*
D03*
X2356156D02*
D03*
X2127556D02*
D03*
X2102156D02*
D03*
X2051356D02*
D03*
D17*
X2013256Y1229458D02*
D03*
X1987856D02*
D03*
X1962456D02*
D03*
D25*
X1945366Y1221437D02*
X1954345Y1212458D01*
X2052684D01*
X1945366Y1221437D02*
Y1505968D01*
X2340606Y1549208D02*
X2676106D01*
X2309606Y1573208D02*
X2712106D01*
X2699106Y1561208D02*
X2730856Y1529458D01*
X2712106Y1573208D02*
X2745856Y1539458D01*
X2676106Y1549208D02*
X2708356Y1516958D01*
X2325499Y1561208D02*
X2699106D01*
X2544106Y1585208D02*
X2583606Y1624708D01*
X2292518Y1585208D02*
X2544106D01*
X2453606Y1597208D02*
X2485856Y1629458D01*
X2278606Y1597208D02*
X2453606D01*
X2272577Y1609208D02*
X2370606D01*
X2386106Y1624708D01*
X2305356Y1541066D02*
X2325499Y1561208D01*
X2254556Y1547247D02*
X2292518Y1585208D01*
X2255372Y1592003D02*
X2272577Y1609208D01*
X2330756Y1539358D02*
X2340606Y1549208D01*
X2230856Y1549458D02*
X2278606Y1597208D01*
X2280856Y1544458D02*
X2309606Y1573208D01*
X2676106Y1394458D02*
Y1413545D01*
X2681856Y1419295D01*
Y1460946D01*
X2676106Y1466696D02*
X2681856Y1460946D01*
X2695606Y1414208D02*
X2708356Y1426958D01*
X2695606Y1394458D02*
Y1414208D01*
X2676106Y1466696D02*
Y1481958D01*
X2708356D02*
Y1516958D01*
X2695606Y1481958D02*
X2708356D01*
Y1451958D02*
Y1481958D01*
X2500777Y1693458D02*
X2581856D01*
X2400502D02*
X2500777D01*
X2500456Y1674458D02*
X2500777Y1674779D01*
Y1693458D01*
X2299893D02*
X2400502D01*
X2400456Y1674458D02*
Y1693412D01*
X2400502Y1693458D01*
X2200832D02*
X2299893D01*
X2300456Y1674458D02*
Y1692895D01*
X2100582Y1693458D02*
X2200832D01*
X2200456Y1674458D02*
Y1693082D01*
X1989856Y1693458D02*
X2100582D01*
Y1674584D02*
Y1693458D01*
X2581856D02*
X2600456Y1674858D01*
X1983541Y1687143D02*
X1989856Y1693458D01*
X2010756Y1657888D02*
X2025856Y1672988D01*
Y1674458D01*
X2010756Y1644208D02*
Y1657888D01*
X2111408Y1644610D02*
Y1658540D01*
X2125856Y1672988D02*
Y1674458D01*
X2111408Y1658540D02*
X2125856Y1672988D01*
X2111006Y1644208D02*
X2111408Y1644610D01*
X2211408D02*
Y1658540D01*
X2225856Y1672988D01*
Y1674458D01*
X2211006Y1644208D02*
X2211408Y1644610D01*
X2311158D02*
Y1658290D01*
X2325856Y1672988D02*
Y1674458D01*
X2311158Y1658290D02*
X2325856Y1672988D01*
X2310756Y1644208D02*
X2311158Y1644610D01*
X2411408Y1658540D02*
X2425856Y1672988D01*
X2411408Y1644610D02*
Y1658540D01*
X2425856Y1672988D02*
Y1674458D01*
X2411006Y1644208D02*
X2411408Y1644610D01*
X2510756Y1649208D02*
X2513780Y1652232D01*
Y1660912D01*
X2525856Y1672988D01*
Y1674458D01*
X2600456Y1674458D02*
Y1674858D01*
X2644256Y1451958D02*
Y1500943D01*
X2651756Y1516958D02*
X2663356D01*
X2644256Y1509458D02*
X2651756Y1516958D01*
X2644256Y1500943D02*
Y1509458D01*
Y1451958D02*
X2663356D01*
X2330756Y1521458D02*
Y1539358D01*
X2730856Y1426958D02*
Y1529458D01*
X2745856Y1336958D02*
Y1539458D01*
X2058770Y1157694D02*
X2064856Y1151608D01*
X2058770Y1157694D02*
Y1206372D01*
X2052684Y1212458D02*
X2058770Y1206372D01*
X2113356Y1172564D02*
X2126462Y1159458D01*
X2195856D01*
X2088356Y1156608D02*
Y1174458D01*
X2083356Y1151608D02*
X2088356Y1156608D01*
X2113356Y1172564D02*
Y1174458D01*
X2644256Y1291058D02*
X2663356Y1271958D01*
X2644256Y1291058D02*
Y1336958D01*
X2510653Y1391155D02*
X2573956Y1454458D01*
X2240926Y1403155D02*
X2497253D01*
X2152956Y1386893D02*
X2181218Y1415155D01*
X2445053Y1427155D02*
X2472356Y1454458D01*
X2431653Y1439155D02*
X2446956Y1454458D01*
X2102156Y1414458D02*
X2126853Y1439155D01*
X2181218Y1415155D02*
X2458453D01*
X2524053Y1379155D02*
X2599356Y1454458D01*
X2229156Y1344577D02*
X2275734Y1391155D01*
X2154774Y1427155D02*
X2445053D01*
X2202229Y1364458D02*
X2240926Y1403155D01*
X2275734Y1391155D02*
X2510653D01*
X2398688Y1379155D02*
X2524053D01*
X2356156Y1336623D02*
X2398688Y1379155D01*
X2458453Y1415155D02*
X2497756Y1454458D01*
X2497253Y1403155D02*
X2548556Y1454458D01*
X2126853Y1439155D02*
X2431653D01*
X2127556Y1399937D02*
X2154774Y1427155D01*
X2472356Y1318258D02*
Y1344458D01*
X2435856D02*
X2472356D01*
X2644256D01*
X2377597Y1229458D02*
X2420856Y1272717D01*
X2038656Y1229458D02*
X2377597D01*
X2583606Y1624708D02*
X2610756D01*
X2000456Y1674458D02*
Y1691858D01*
X1983541Y1521458D02*
Y1687143D01*
X1960856Y1521458D02*
X1983541D01*
X1945366Y1505968D02*
X1960856Y1521458D01*
X1983541D02*
X2000556D01*
X2083356Y1151608D02*
X2088856D01*
X2064856D02*
X2083356D01*
X2420856Y1329458D02*
X2435856Y1344458D01*
X2420856Y1272717D02*
Y1329458D01*
X1975856Y1292158D02*
X2004156Y1263858D01*
X2644256Y1344458D02*
Y1361544D01*
Y1336958D02*
Y1344458D01*
X2735356Y1271958D02*
X2745856Y1282458D01*
X2708356Y1271958D02*
X2735356D01*
X2745856Y1282458D02*
Y1336958D01*
X2695606Y1304458D02*
Y1324208D01*
X2708356Y1336958D01*
X2644256Y1344458D02*
X2644256Y1344458D01*
Y1336958D02*
X2663356D01*
X2644256Y1361544D02*
Y1426958D01*
X2644670Y1361958D02*
X2663356D01*
X2644256Y1361544D02*
X2644670Y1361958D01*
X2644256Y1426958D02*
Y1451958D01*
Y1426958D02*
X2663356D01*
X1975856Y1292158D02*
Y1454858D01*
X1995456Y1474458D01*
X2410856D01*
X2010756Y1624708D02*
X2040856D01*
X2040856Y1624708D01*
X2070606D02*
X2102156Y1593158D01*
X2040856Y1624708D02*
X2070606D01*
X2102156Y1521458D02*
Y1593158D01*
X2485856Y1629458D02*
X2510856D01*
X2220961Y1569563D02*
Y1569563D01*
X2203756Y1521458D02*
Y1552358D01*
X2220961Y1569563D01*
X2243401Y1592003D02*
X2255372D01*
X2220961Y1569563D02*
X2243401Y1592003D01*
X2178356Y1561958D02*
X2225606Y1609208D01*
X2178356Y1521458D02*
Y1561958D01*
X2225606Y1609208D02*
X2255606D01*
X2271106Y1624708D01*
X2230856Y1523158D02*
Y1549458D01*
X2254556Y1521458D02*
Y1547247D01*
X2229156Y1521458D02*
X2230856Y1523158D01*
X2271106Y1624708D02*
X2311006D01*
X2340756D01*
X2186106Y1624708D02*
X2210756D01*
X2210756Y1624708D02*
X2241006D01*
X2210756Y1624708D02*
X2210756Y1624708D01*
X2152956Y1521458D02*
Y1591558D01*
X2186106Y1624708D01*
X2110756Y1609558D02*
Y1624708D01*
Y1609558D02*
X2127556Y1592758D01*
Y1521458D02*
Y1592758D01*
X2386106Y1624708D02*
X2410756D01*
X2510856Y1629708D02*
X2525756D01*
X2111006Y1624708D02*
X2111006Y1624708D01*
X2141006D01*
X2411006D02*
X2441006D01*
X2411006Y1624708D02*
X2411006Y1624708D01*
X2525756Y1629708D02*
X2540756D01*
X2305356Y1521458D02*
Y1541066D01*
X2280856Y1522358D02*
Y1544458D01*
X2610756Y1624708D02*
X2640756D01*
X2730856Y1369458D02*
Y1426958D01*
X2708356D02*
X2730856D01*
X2722942Y1361544D02*
X2730856Y1369458D01*
X2708770Y1361544D02*
X2722942D01*
X2708356Y1361958D02*
X2708770Y1361544D01*
X2708356Y1336958D02*
X2745856D01*
X2279956Y1521458D02*
X2280856Y1522358D01*
X2523156Y1504458D02*
X2640741D01*
X2548556Y1454458D02*
Y1470658D01*
X2440856Y1504458D02*
X2523156D01*
Y1470658D02*
Y1504458D01*
X2410856Y1474458D02*
X2440856Y1504458D01*
X2446956Y1454458D02*
Y1470658D01*
X2611158Y1654458D02*
X2625856Y1669156D01*
Y1669458D01*
X2610756Y1644208D02*
X2611158Y1644610D01*
Y1654458D01*
X2102156Y1267458D02*
Y1414458D01*
X2127556Y1267458D02*
Y1399937D01*
X2152956Y1267458D02*
Y1386893D01*
X2202229Y1268985D02*
X2203756Y1267458D01*
X2202229Y1268985D02*
Y1364458D01*
X2229156Y1267458D02*
Y1344577D01*
X2356156Y1267458D02*
Y1336623D01*
X2573956Y1454458D02*
Y1470658D01*
X2472356Y1454458D02*
Y1470658D01*
X2497756Y1454458D02*
Y1470658D01*
X2599356Y1454458D02*
Y1470658D01*
D26*
X2000456Y1674458D02*
D03*
X2025856D02*
D03*
X2051256D02*
D03*
X2100456D02*
D03*
X2125856D02*
D03*
X2151256D02*
D03*
X2200456D02*
D03*
X2225856D02*
D03*
X2251256D02*
D03*
X2300456D02*
D03*
X2325856D02*
D03*
X2351256D02*
D03*
X2400456D02*
D03*
X2425856D02*
D03*
X2451256D02*
D03*
X2500456Y1674458D02*
D03*
X2525856D02*
D03*
X2551256D02*
D03*
X2600456Y1674458D02*
D03*
X2625856D02*
D03*
X2651256D02*
D03*
D27*
X2038656Y1229458D02*
D03*
D28*
X2113356Y1174458D02*
D03*
X2195856Y1159458D02*
D03*
D29*
X2088356Y1174458D02*
D03*
D30*
X2195856Y1209458D02*
D03*
D31*
X2640856Y1174458D02*
D03*
X2520856Y1174458D02*
D03*
X2400856Y1174458D02*
D03*
D32*
X2590856D02*
D03*
X2470856Y1174458D02*
D03*
X2350856Y1174458D02*
D03*
D33*
X2663356Y1271958D02*
D03*
X2708356D02*
D03*
X2663356Y1336958D02*
D03*
X2708356D02*
D03*
X2663356Y1361958D02*
D03*
X2708356D02*
D03*
X2663356Y1426958D02*
D03*
X2708356D02*
D03*
X2663356Y1451958D02*
D03*
X2708356D02*
D03*
X2663356Y1516958D02*
D03*
X2708356D02*
D03*
D34*
X2715856Y1164458D02*
D03*
Y1674458D02*
D03*
X1935856Y1164458D02*
D03*
Y1674458D02*
D03*
D35*
X2676106Y1481958D02*
D03*
X2695606D02*
D03*
X2676106Y1394458D02*
D03*
X2695606D02*
D03*
X2676106Y1304458D02*
D03*
X2695606D02*
D03*
D36*
X2242836Y1174458D02*
D03*
X2308876D02*
D03*
D37*
X2088856Y1151608D02*
D03*
Y1197308D02*
D03*
D38*
X2017956Y1174458D02*
D03*
D39*
X2010756Y1624708D02*
D03*
Y1644208D02*
D03*
X2040856Y1644208D02*
D03*
Y1624708D02*
D03*
X2110756Y1624708D02*
D03*
Y1644208D02*
D03*
X2141006Y1644208D02*
D03*
Y1624708D02*
D03*
X2210756Y1624708D02*
D03*
Y1644208D02*
D03*
X2241006Y1644208D02*
D03*
Y1624708D02*
D03*
X2311006Y1624708D02*
D03*
Y1644208D02*
D03*
X2340756Y1644208D02*
D03*
Y1624708D02*
D03*
X2410756Y1624708D02*
D03*
Y1644208D02*
D03*
X2441006Y1644208D02*
D03*
Y1624708D02*
D03*
X2510756Y1629708D02*
D03*
Y1649208D02*
D03*
X2540756Y1649208D02*
D03*
Y1629708D02*
D03*
X2610756Y1624708D02*
D03*
Y1644208D02*
D03*
X2640756Y1644208D02*
D03*
Y1624708D02*
D03*
D40*
X2299893Y1693458D02*
X2300456Y1692895D01*
X2200456Y1693082D02*
X2200832Y1693458D01*
X2100456Y1674458D02*
X2100582Y1674584D01*
D41*
X2470856Y1174458D02*
Y1215158D01*
X2523156Y1267458D02*
Y1318258D01*
X2470856Y1215158D02*
X2523156Y1267458D01*
X2520856Y1174458D02*
Y1213459D01*
X2548556Y1241159D02*
Y1318258D01*
X2520856Y1213459D02*
X2548556Y1241159D01*
X2260856Y1174458D02*
X2295856Y1209458D01*
X2386856D02*
X2446956Y1269558D01*
X2295856Y1209458D02*
X2386856D01*
X2446956Y1269558D02*
Y1318258D01*
X2088856Y1197308D02*
X2091356D01*
X2138706Y1184458D02*
X2195856D01*
X2125856Y1197308D02*
X2138706Y1184458D01*
X2091356Y1197308D02*
X2125856D01*
X2308876Y1174458D02*
X2350856D01*
X2308876Y1174458D02*
X2308876Y1174458D01*
X2242836Y1174458D02*
X2260856D01*
X2590856Y1174458D02*
Y1225958D01*
X2573956Y1242858D02*
Y1318258D01*
Y1242858D02*
X2590856Y1225958D01*
X2195856Y1184458D02*
X2210856D01*
X2195856D02*
Y1209458D01*
X2210856Y1184458D02*
X2220856Y1174458D01*
X2242836D01*
X2599356Y1267458D02*
Y1318258D01*
Y1267458D02*
X2640856Y1225958D01*
Y1174458D02*
Y1225958D01*
M02*
