G04*
G04 #@! TF.GenerationSoftware,Altium Limited,Altium Designer,24.4.1 (13)*
G04*
G04 Layer_Color=128*
%FSLAX44Y44*%
%MOMM*%
G71*
G04*
G04 #@! TF.SameCoordinates,63E37870-44FF-48FD-8248-C193DD5CA91D*
G04*
G04*
G04 #@! TF.FilePolarity,Positive*
G04*
G01*
G75*
%ADD10C,0.2000*%
%ADD35R,1.3000X1.5000*%
%ADD36R,1.7780X3.2000*%
%ADD37R,3.0000X1.6000*%
%ADD38R,6.2000X5.8000*%
%ADD39R,1.5000X1.3000*%
D10*
X1895856Y1164458D02*
G03*
X1935856Y1124458I40000J0D01*
G01*
Y1714458D02*
G03*
X1895856Y1674458I0J-40000D01*
G01*
X2755856D02*
G03*
X2715856Y1714458I-40000J0D01*
G01*
Y1124458D02*
G03*
X2755856Y1164458I0J40000D01*
G01*
X1935856Y1714458D02*
X2715856Y1714458D01*
X1935856Y1124458D02*
X2715856Y1124458D01*
X1895856Y1674458D02*
X1895856Y1164458D01*
X2755856Y1674458D02*
X2755856Y1164458D01*
D35*
X2676106Y1481958D02*
D03*
X2695606D02*
D03*
X2676106Y1394458D02*
D03*
X2695606D02*
D03*
X2676106Y1304458D02*
D03*
X2695606D02*
D03*
D36*
X2242836Y1174458D02*
D03*
X2308876D02*
D03*
D37*
X2088856Y1151608D02*
D03*
Y1197308D02*
D03*
D38*
X2017956Y1174458D02*
D03*
D39*
X2010756Y1624708D02*
D03*
Y1644208D02*
D03*
X2040856Y1644208D02*
D03*
Y1624708D02*
D03*
X2110756Y1624708D02*
D03*
Y1644208D02*
D03*
X2141006Y1644208D02*
D03*
Y1624708D02*
D03*
X2210756Y1624708D02*
D03*
Y1644208D02*
D03*
X2241006Y1644208D02*
D03*
Y1624708D02*
D03*
X2311006Y1624708D02*
D03*
Y1644208D02*
D03*
X2340756Y1644208D02*
D03*
Y1624708D02*
D03*
X2410756Y1624708D02*
D03*
Y1644208D02*
D03*
X2441006Y1644208D02*
D03*
Y1624708D02*
D03*
X2510756Y1629708D02*
D03*
Y1649208D02*
D03*
X2540756Y1649208D02*
D03*
Y1629708D02*
D03*
X2610756Y1624708D02*
D03*
Y1644208D02*
D03*
X2640756Y1644208D02*
D03*
Y1624708D02*
D03*
M02*
