G04*
G04 #@! TF.GenerationSoftware,Altium Limited,Altium Designer,24.4.1 (13)*
G04*
G04 Layer_Color=255*
%FSLAX44Y44*%
%MOMM*%
G71*
G04*
G04 #@! TF.SameCoordinates,63E37870-44FF-48FD-8248-C193DD5CA91D*
G04*
G04*
G04 #@! TF.FilePolarity,Positive*
G04*
G01*
G75*
%ADD10C,0.2000*%
%ADD14C,2.1000*%
%ADD17C,1.6000*%
%ADD26C,2.0000*%
%ADD27R,1.6000X1.6000*%
%ADD28C,1.5000*%
G04:AMPARAMS|DCode=29|XSize=1.5mm|YSize=1.5mm|CornerRadius=0.375mm|HoleSize=0mm|Usage=FLASHONLY|Rotation=180.000|XOffset=0mm|YOffset=0mm|HoleType=Round|Shape=RoundedRectangle|*
%AMROUNDEDRECTD29*
21,1,1.5000,0.7500,0,0,180.0*
21,1,0.7500,1.5000,0,0,180.0*
1,1,0.7500,-0.3750,0.3750*
1,1,0.7500,0.3750,0.3750*
1,1,0.7500,0.3750,-0.3750*
1,1,0.7500,-0.3750,-0.3750*
%
%ADD29ROUNDEDRECTD29*%
G04:AMPARAMS|DCode=30|XSize=1.5mm|YSize=1.5mm|CornerRadius=0.375mm|HoleSize=0mm|Usage=FLASHONLY|Rotation=90.000|XOffset=0mm|YOffset=0mm|HoleType=Round|Shape=RoundedRectangle|*
%AMROUNDEDRECTD30*
21,1,1.5000,0.7500,0,0,90.0*
21,1,0.7500,1.5000,0,0,90.0*
1,1,0.7500,0.3750,0.3750*
1,1,0.7500,0.3750,-0.3750*
1,1,0.7500,-0.3750,-0.3750*
1,1,0.7500,-0.3750,0.3750*
%
%ADD30ROUNDEDRECTD30*%
%ADD31C,2.5000*%
G04:AMPARAMS|DCode=32|XSize=2.5mm|YSize=2.5mm|CornerRadius=0.625mm|HoleSize=0mm|Usage=FLASHONLY|Rotation=0.000|XOffset=0mm|YOffset=0mm|HoleType=Round|Shape=RoundedRectangle|*
%AMROUNDEDRECTD32*
21,1,2.5000,1.2500,0,0,0.0*
21,1,1.2500,2.5000,0,0,0.0*
1,1,1.2500,0.6250,-0.6250*
1,1,1.2500,-0.6250,-0.6250*
1,1,1.2500,-0.6250,0.6250*
1,1,1.2500,0.6250,0.6250*
%
%ADD32ROUNDEDRECTD32*%
%ADD33C,1.9000*%
%ADD34C,5.2000*%
D10*
X1895856Y1164458D02*
G03*
X1935856Y1124458I40000J0D01*
G01*
Y1714458D02*
G03*
X1895856Y1674458I0J-40000D01*
G01*
X2755856D02*
G03*
X2715856Y1714458I-40000J0D01*
G01*
Y1124458D02*
G03*
X2755856Y1164458I0J40000D01*
G01*
X1935856Y1714458D02*
X2715856Y1714458D01*
X1935856Y1124458D02*
X2715856Y1124458D01*
X1895856Y1674458D02*
X1895856Y1164458D01*
X2755856Y1674458D02*
X2755856Y1164458D01*
D14*
X2624756Y1470658D02*
D03*
X2523156D02*
D03*
X2624756Y1318258D02*
D03*
X2599356D02*
D03*
X2573956D02*
D03*
X2548556D02*
D03*
X2523156D02*
D03*
X2497756D02*
D03*
X2472356D02*
D03*
X2446956D02*
D03*
X2599356Y1470658D02*
D03*
X2497756D02*
D03*
X2472356D02*
D03*
X2446956D02*
D03*
X2548556D02*
D03*
X2573956D02*
D03*
X2000556Y1267458D02*
D03*
X2025956D02*
D03*
X2051356D02*
D03*
X2076756D02*
D03*
X2102156D02*
D03*
X2127556D02*
D03*
X2152956D02*
D03*
X2178356D02*
D03*
X2203756D02*
D03*
X2229156D02*
D03*
X2254556D02*
D03*
X2279956D02*
D03*
X2305356D02*
D03*
X2330756D02*
D03*
X2356156D02*
D03*
X2000556Y1521458D02*
D03*
X2025956D02*
D03*
X2076756D02*
D03*
X2152956D02*
D03*
X2178356D02*
D03*
X2203756D02*
D03*
X2229156D02*
D03*
X2254556D02*
D03*
X2279956D02*
D03*
X2305356D02*
D03*
X2330756D02*
D03*
X2356156D02*
D03*
X2127556D02*
D03*
X2102156D02*
D03*
X2051356D02*
D03*
D17*
X2013256Y1229458D02*
D03*
X1987856D02*
D03*
X1962456D02*
D03*
D26*
X2000456Y1674458D02*
D03*
X2025856D02*
D03*
X2051256D02*
D03*
X2100456D02*
D03*
X2125856D02*
D03*
X2151256D02*
D03*
X2200456D02*
D03*
X2225856D02*
D03*
X2251256D02*
D03*
X2300456D02*
D03*
X2325856D02*
D03*
X2351256D02*
D03*
X2400456D02*
D03*
X2425856D02*
D03*
X2451256D02*
D03*
X2500456Y1674458D02*
D03*
X2525856D02*
D03*
X2551256D02*
D03*
X2600456Y1674458D02*
D03*
X2625856D02*
D03*
X2651256D02*
D03*
D27*
X2038656Y1229458D02*
D03*
D28*
X2113356Y1174458D02*
D03*
X2195856Y1159458D02*
D03*
D29*
X2088356Y1174458D02*
D03*
D30*
X2195856Y1209458D02*
D03*
D31*
X2640856Y1174458D02*
D03*
X2520856Y1174458D02*
D03*
X2400856Y1174458D02*
D03*
D32*
X2590856D02*
D03*
X2470856Y1174458D02*
D03*
X2350856Y1174458D02*
D03*
D33*
X2663356Y1271958D02*
D03*
X2708356D02*
D03*
X2663356Y1336958D02*
D03*
X2708356D02*
D03*
X2663356Y1361958D02*
D03*
X2708356D02*
D03*
X2663356Y1426958D02*
D03*
X2708356D02*
D03*
X2663356Y1451958D02*
D03*
X2708356D02*
D03*
X2663356Y1516958D02*
D03*
X2708356D02*
D03*
D34*
X2715856Y1164458D02*
D03*
Y1674458D02*
D03*
X1935856Y1164458D02*
D03*
Y1674458D02*
D03*
M02*
